<svg fill="none" xmlns="http://www.w3.org/2000/svg" preserveAspectRatio="none" viewBox="0 0 1440 800">
<defs>
        <style>
          .moving-cube {
            animation-name: moveUp;
            animation-duration: 5000ms;
            animation-timing-function: ease;
            animation-delay: 100ms;
            animation-iteration-count: infinite;
          }

          .moving-cross {
            animation-name: moveDown;
            animation-duration: 10000ms;
            animation-timing-function: ease-in-out;
            animation-delay: 700ms;
            animation-iteration-count: infinite;
          }

          @keyframes moveUp {
            0% {
              transform: translateY(0);
            }
            50% {
              transform: translateY(-40px);
            }
            100% {
              transform: translateY(0px);
            }
          }

          @keyframes moveDown {
            0% {
              transform: translateY(0);
            }
            50% {
              transform: translateY(60px);
            }
            100% {
              transform: translateY(0px);
            }
          }

          
        </style>
</defs>
  <path d="M1440 0H-3.293v910.187H1440V0z" fill="#FCD4D4"/>
  <path d="M1440 788.367v121.838H-3.293V410.986a252.84 252.84 0 0140.143 16.146c45.185 22.883 80.959 59.417 112.365 97.754 63.582 77.676 113.058 165.29 180.412 239.871a341.209 341.209 0 0037.583 35.734c62.466 50.971 140.134 77.111 225.75 79.842a541.358 541.358 0 00112.885-7.755c49.914-8.851 97.889-25.609 141.905-49.569 53.478-28.962 107.169-58.871 166.17-75.709 121.66-34.715 253.17-10.577 374.47 25.248 17.26 5.079 34.44 10.395 51.61 15.819z" fill="#FFFBF5"/>
  <path d="M1440 .018v122.73a548.68 548.68 0 01-46.19 28.033c-40.2 21.845-83.57 40.049-129.6 45.382-64.37 7.282-132.25-2.166-190.52-28.998-152.024-70.03-270.567-70.267-376.177-49.897l-3.233.638c-100.569 19.842-189.553 58.015-284.81 71.704a115.02 115.02 0 01-3.599.492 447.845 447.845 0 01-97.913 3.185C152.198 180.69 133.647 71.777-3.292 88.889V.019H1440z" fill="#60CBE8"/>
  <path d="M886.892 180.781v-.346l-36.795-19.987-36.813 19.987v35.17l36.813 19.988 36.814-19.988v-34.824h-.019z" fill="#EF8E8E"/>
  <path d="M841.149 221.794l-38.738-21.025v-36.917l38.738 21.043v36.899zm-36.814-22.081l34.89 18.932v-32.767l-34.89-18.932v32.767z" fill="#000"/>
  <path d="M839.225 221.794v-36.917l38.738-21.025v36.935l-38.738 21.007zm1.924-35.879v32.766l34.889-18.931v-32.767l-34.889 18.932z" fill="#000"/>
  <path d="M840.187 186.443l-37.776-20.498v-1.42l37.776-20.497 37.776 20.497v1.42l-37.776 20.498zm-35.236-21.208l35.217 19.114 35.197-19.114-35.197-19.114-35.217 19.114z" fill="#000"/>
  <g class="moving-cube">
  <path d="M803.469 752.342v-.455l-45.492-24.684-45.474 24.684v43.471l45.474 24.702 45.492-24.702v-43.034.018z" fill="#60CBE8"/>
  <path d="M746.7 802.621l-47.417-25.74v-45.073l47.417 25.74v45.073zm-45.493-26.778l43.568 23.665V758.55l-43.568-23.665v40.958z" fill="#000"/>
  <path d="M744.776 802.621v-45.127l47.417-25.686v45.127l-47.417 25.686zm1.924-44.071v40.94l43.568-23.665v-40.922L746.7 758.55z" fill="#000"/>
  <path d="M745.738 759.114l-46.455-25.212v-1.493l46.455-25.23 46.455 25.23v1.493l-46.455 25.212zm-43.953-25.977l43.953 23.865 43.972-23.865-43.972-23.901-43.953 23.901z" fill="#000"/>
  </g>
  <path d="M17.623 743.452l-21.615 20.489 1.36 1.289 21.615-20.489-1.36-1.289zM36.254 747.89L-3.97 786.021l1.36 1.289 40.225-38.131-1.36-1.289zM53.863 753.274L-3.98 808.106l1.359 1.289 57.844-54.832-1.36-1.289zM70.693 759.428L-3.967 830.2l1.36 1.288 74.66-70.772-1.36-1.288zM86.819 766.221L-3.978 852.29l1.36 1.288 90.796-86.068-1.36-1.289zM102.348 773.558L-3.987 874.355l1.36 1.289 106.335-100.798-1.36-1.288zM117.438 781.362L-3.973 896.451l1.36 1.288 121.41-115.088-1.359-1.289zM132.174 789.739L5.529 909.538l1.36 1.287 126.646-119.799-1.361-1.287zM146.425 798.36L28.883 909.549l1.361 1.287 117.542-111.189-1.361-1.287zM160.307 807.282L52.222 909.524l1.361 1.288L161.668 808.57l-1.361-1.288zM173.904 816.523l-98.341 93.026 1.36 1.287 98.342-93.026-1.361-1.287zM187.52 825.738l-88.598 83.81 1.361 1.287 88.598-83.809-1.361-1.288zM202.63 833.512l-80.379 76.035 1.361 1.287 80.379-76.035-1.361-1.287zM219.926 839.241l-74.324 70.307 1.36 1.287 74.324-70.307-1.36-1.287zM240.364 841.998l-71.399 67.539 1.361 1.287 71.399-67.539-1.361-1.287zM265.471 840.328l-73.168 69.212 1.361 1.287 73.168-69.212-1.361-1.287zM298.119 831.539l-82.475 78.017 1.361 1.287 82.475-78.017-1.361-1.287zM341.643 812.466L239.002 909.56l1.36 1.287 102.642-97.094-1.361-1.287zM391.52 787.333L262.331 909.54l1.361 1.287L392.881 788.62l-1.361-1.287zM434.773 768.515L285.676 909.553l1.361 1.287 149.097-141.038-1.361-1.287zM468.953 758.293L309.052 909.551l1.36 1.287L470.314 759.58l-1.361-1.287zM496.768 754.043L332.376 909.549l1.361 1.288L498.129 755.33l-1.361-1.287zM520.396 753.768L355.731 909.532l1.361 1.287 164.665-155.764-1.361-1.287zM541.165 756.198L379.059 909.542l1.36 1.287 162.107-153.344-1.361-1.287zM559.754 760.694L402.397 909.546l1.361 1.287 157.357-148.852-1.361-1.287zM576.779 766.695L425.776 909.536l1.361 1.287 151.002-142.841-1.36-1.287zM592.509 773.896L449.1 909.554l1.361 1.287L593.87 775.184l-1.361-1.288zM607.242 782.056L472.473 909.54l1.361 1.287 134.769-127.484-1.361-1.287zM621.077 791.037L495.806 909.536l1.361 1.287 125.271-118.499-1.361-1.287zM634.212 800.689L519.147 909.534l1.361 1.287 115.065-108.845-1.361-1.287zM646.726 810.965l-104.233 98.599 1.361 1.287 104.233-98.599-1.361-1.287zM658.712 821.711l-92.871 87.851 1.361 1.288 92.871-87.852-1.361-1.287zM670.223 832.889l-81.047 76.665 1.361 1.288 81.046-76.666-1.36-1.287zM681.331 844.457l-68.8 65.081 1.361 1.287 68.8-65.081-1.361-1.287zM692.062 856.403l-56.186 53.149 1.361 1.287 56.185-53.149-1.36-1.287zM702.489 868.642l-43.258 40.92 1.36 1.287 43.259-40.92-1.361-1.287zM712.593 881.156l-30.018 28.395 1.361 1.288 30.018-28.396-1.361-1.287zM722.4 893.949l-16.493 15.601 1.361 1.288 16.492-15.601-1.36-1.288z" fill="#252828"/>
  <path d="M1191.64 155.169c35.68 0 64.6-27.36 64.6-61.11s-28.92-61.11-64.6-61.11c-35.68 0-64.6 27.36-64.6 61.11s28.92 61.11 64.6 61.11z" fill="#FFFBF5"/>
  <path d="M1152.75 31.6a1.3 1.3 0 00.82-.3c.23-.19.37-.452.41-.737l-2.39.255c.09.227.24.424.45.564.2.14.45.216.71.218zM1160.19 31.602c.33-.005.65-.132.88-.353.23-.222.36-.52.36-.83v-.128h-2.39v.128c0 .298.12.586.33.806.21.219.51.354.82.377zM1167.62 31.6c.26 0 .51-.076.72-.216.21-.14.37-.337.46-.566l-2.39-.255c.04.282.18.542.4.732.22.19.51.299.81.305zM1130.4 39.102c.34 0 .65-.125.89-.347.23-.222.37-.523.37-.837 0-.197-.06-.39-.16-.563-.1-.172-.25-.316-.42-.42l-1.93.965c0 .157.03.313.09.459.06.145.16.278.27.39a1.308 1.308 0 00.89.353zM1137.87 36.753c-.25 0-.49.07-.7.201-.2.131-.36.317-.46.534-.09.217-.11.456-.06.686.05.23.17.441.34.606a1.308 1.308 0 001.37.245c.23-.093.43-.247.56-.444.14-.197.21-.428.2-.663 0-.154-.03-.307-.09-.45a1.24 1.24 0 00-.28-.38 1.166 1.166 0 00-.4-.251 1.314 1.314 0 00-.48-.084zM1145.3 36.753c-.25-.003-.49.064-.7.192-.21.129-.38.313-.47.53-.1.217-.13.457-.08.688.05.231.17.444.35.61.17.167.4.28.64.325.24.045.5.02.73-.072.23-.092.42-.246.56-.444.13-.197.2-.428.2-.664 0-.309-.13-.605-.36-.823a1.258 1.258 0 00-.87-.342zM1152.75 36.753c-.25-.003-.5.064-.71.192-.2.129-.37.313-.46.53-.1.217-.13.457-.08.688.05.231.17.444.34.61.18.167.4.28.65.325.24.045.5.02.72-.072.23-.092.43-.246.57-.444.13-.197.2-.428.2-.664a1.177 1.177 0 00-.37-.818 1.284 1.284 0 00-.86-.347zM1160.19 36.753c-.25-.003-.49.064-.7.192-.21.129-.37.313-.47.53-.09.217-.12.457-.07.688.04.231.16.444.34.61a1.298 1.298 0 001.37.253c.23-.092.43-.246.56-.443.14-.198.21-.43.21-.665a1.177 1.177 0 00-.37-.818 1.29 1.29 0 00-.87-.347zM1167.62 36.753c-.25 0-.49.07-.7.201-.2.131-.36.317-.46.534-.09.217-.11.456-.06.686.05.23.17.441.34.606.18.164.41.276.65.32.24.043.5.017.72-.075.23-.093.43-.247.56-.444.14-.197.21-.428.2-.663 0-.154-.03-.307-.09-.45a1.394 1.394 0 00-.27-.38 1.279 1.279 0 00-.89-.335zM1175.07 36.753c-.25 0-.49.07-.7.201-.2.131-.36.317-.46.534-.09.217-.12.456-.07.686.05.23.17.441.35.606a1.308 1.308 0 001.37.245c.23-.093.42-.247.56-.444.13-.197.2-.428.2-.663 0-.154-.03-.307-.1-.45a1.068 1.068 0 00-.27-.38 1.166 1.166 0 00-.4-.251 1.351 1.351 0 00-.48-.084zM1182.52 36.753c-.25 0-.49.07-.7.201-.21.131-.37.317-.46.534-.1.217-.12.456-.07.686.05.23.17.441.35.606.18.164.4.276.64.32.25.043.5.017.73-.075.23-.093.42-.247.56-.444.13-.197.2-.428.2-.663a1.17 1.17 0 00-.78-1.081 1.262 1.262 0 00-.47-.084zM1188.71 37.919c0 .313.13.614.37.836.23.222.55.347.88.347.17 0 .33-.031.48-.09.15-.06.29-.148.4-.258.12-.11.21-.24.27-.384.06-.144.09-.297.09-.451-.62-.328-1.26-.656-1.93-.965-.17.103-.31.246-.41.415-.1.168-.15.357-.15.55zM1122.96 46.583c.68 0 1.23-.521 1.23-1.165 0-.643-.55-1.165-1.23-1.165-.68 0-1.23.522-1.23 1.165 0 .644.55 1.165 1.23 1.165zM1130.4 44.253c-.24 0-.49.07-.69.201-.21.131-.37.317-.46.534-.1.217-.12.456-.07.686.05.23.17.441.35.606.17.164.4.276.64.32.25.043.5.017.73-.075.22-.093.42-.247.55-.444.14-.197.21-.428.21-.663a1.17 1.17 0 00-.78-1.081 1.279 1.279 0 00-.48-.084zM1137.85 46.583c.68 0 1.23-.521 1.23-1.165 0-.643-.55-1.165-1.23-1.165-.68 0-1.23.522-1.23 1.165 0 .644.55 1.165 1.23 1.165zM1145.3 44.253c-.25-.003-.49.064-.7.192-.21.129-.38.313-.47.53-.1.217-.13.457-.08.688.05.231.17.444.35.61.17.167.4.28.64.325.24.045.5.02.73-.072.23-.092.42-.246.56-.444.13-.197.2-.428.2-.664 0-.309-.13-.605-.36-.823a1.258 1.258 0 00-.87-.342zM1152.73 46.583c.68 0 1.23-.521 1.23-1.165 0-.643-.55-1.165-1.23-1.165-.68 0-1.23.522-1.23 1.165 0 .644.55 1.165 1.23 1.165zM1160.19 44.253c-.25-.003-.49.064-.7.192-.21.129-.37.313-.47.53-.09.217-.12.457-.07.688.04.231.16.444.34.61.18.167.4.28.65.325.24.045.49.02.72-.072.23-.092.43-.246.56-.444.14-.197.21-.428.21-.664a1.177 1.177 0 00-.37-.818 1.29 1.29 0 00-.87-.347zM1167.62 44.253c-.25 0-.49.07-.7.201-.2.131-.36.317-.46.534-.09.217-.11.456-.06.686.05.23.17.441.34.606.18.164.41.276.65.32.24.043.5.017.72-.075.23-.093.43-.247.56-.444.14-.197.21-.428.2-.663 0-.154-.03-.307-.09-.45a1.394 1.394 0 00-.27-.38 1.279 1.279 0 00-.89-.335zM1175.07 46.583c.68 0 1.23-.521 1.23-1.165 0-.643-.55-1.165-1.23-1.165-.68 0-1.23.522-1.23 1.165 0 .644.55 1.165 1.23 1.165zM1182.52 44.253c-.25 0-.49.07-.7.201-.21.131-.37.317-.46.534-.1.217-.12.456-.07.686.05.23.17.441.35.606.18.164.4.276.64.32.25.043.5.017.73-.075.23-.093.42-.247.56-.444.13-.197.2-.428.2-.663a1.17 1.17 0 00-.78-1.081 1.262 1.262 0 00-.47-.084zM1189.96 46.583c.68 0 1.24-.521 1.24-1.165 0-.643-.56-1.165-1.24-1.165-.68 0-1.23.522-1.23 1.165 0 .644.55 1.165 1.23 1.165zM1197.41 44.253c-.25-.003-.49.064-.7.192a1.162 1.162 0 00-.55 1.218c.05.231.17.444.35.61.17.167.4.28.64.325.25.045.5.02.73-.072.23-.092.42-.246.56-.444.14-.197.21-.428.2-.664 0-.307-.13-.6-.36-.818a1.29 1.29 0 00-.87-.347zM1115.53 51.753c-.25-.003-.49.063-.7.192-.21.129-.38.313-.47.53-.1.217-.13.457-.08.688.05.231.17.444.34.61a1.323 1.323 0 001.38.253c.23-.092.42-.246.56-.444.13-.197.2-.428.2-.664 0-.307-.14-.6-.37-.818a1.283 1.283 0 00-.86-.347zM1122.98 51.753a1.33 1.33 0 00-.71.192c-.2.129-.37.313-.47.53-.09.217-.12.457-.07.688.05.231.17.444.34.61.18.167.4.28.65.325.24.045.5.02.72-.072.23-.092.43-.246.56-.444.14-.197.21-.428.21-.664a1.177 1.177 0 00-.37-.818 1.283 1.283 0 00-.86-.347zM1130.4 51.753c-.24 0-.49.07-.69.201-.21.13-.37.317-.46.534-.1.217-.12.456-.07.686.05.23.17.44.35.606.17.164.4.276.64.32.25.043.5.017.73-.076.22-.092.42-.246.55-.443.14-.197.21-.428.21-.663a1.17 1.17 0 00-.78-1.081 1.277 1.277 0 00-.48-.084zM1137.87 51.753c-.25 0-.49.07-.7.201-.2.13-.36.317-.46.534-.09.217-.11.456-.06.686.05.23.17.44.34.606a1.308 1.308 0 001.37.245c.23-.093.43-.247.56-.444.14-.197.21-.428.2-.663 0-.154-.03-.307-.09-.45a1.24 1.24 0 00-.28-.38 1.166 1.166 0 00-.4-.251 1.312 1.312 0 00-.48-.084zM1145.3 51.753c-.25-.003-.49.063-.7.192-.21.129-.38.313-.47.53-.1.217-.13.457-.08.688.05.231.17.444.35.61.17.167.4.28.64.325.24.045.5.02.73-.072.23-.092.42-.246.56-.444.13-.197.2-.428.2-.664 0-.309-.13-.605-.36-.824a1.258 1.258 0 00-.87-.34zM1152.75 51.753a1.33 1.33 0 00-.71.192c-.2.129-.37.313-.46.53-.1.217-.13.457-.08.688.05.231.17.444.34.61.18.167.4.28.65.325.24.045.5.02.72-.072.23-.092.43-.246.57-.444.13-.197.2-.428.2-.664a1.177 1.177 0 00-.37-.818 1.283 1.283 0 00-.86-.347zM1160.19 51.753c-.25-.003-.49.063-.7.192-.21.129-.37.313-.47.53-.09.217-.12.457-.07.688.04.231.16.444.34.61a1.298 1.298 0 001.37.253c.23-.092.43-.246.56-.444.14-.197.21-.428.21-.664a1.177 1.177 0 00-.37-.818 1.289 1.289 0 00-.87-.347zM1167.62 51.753c-.25 0-.49.07-.7.201-.2.13-.36.317-.46.534-.09.217-.11.456-.06.686.05.23.17.44.34.606.18.164.41.276.65.32.24.043.5.017.72-.076.23-.092.43-.246.56-.443.14-.197.21-.428.2-.663 0-.154-.03-.307-.09-.45a1.394 1.394 0 00-.27-.38 1.277 1.277 0 00-.89-.335zM1175.07 51.753c-.25 0-.49.07-.7.201-.2.13-.36.317-.46.534-.09.217-.12.456-.07.686.05.23.17.44.35.606a1.308 1.308 0 001.37.245c.23-.093.42-.247.56-.444.13-.197.2-.428.2-.663 0-.154-.03-.307-.1-.45a1.068 1.068 0 00-.27-.38 1.166 1.166 0 00-.4-.251 1.35 1.35 0 00-.48-.084zM1182.52 51.753c-.25 0-.49.07-.7.201-.21.13-.37.317-.46.534-.1.217-.12.456-.07.686.05.23.17.44.35.606.18.164.4.276.64.32.25.043.5.017.73-.076.23-.092.42-.246.56-.443.13-.197.2-.428.2-.663a1.17 1.17 0 00-.78-1.081 1.26 1.26 0 00-.47-.084zM1189.96 51.753c-.25-.003-.49.063-.7.192-.21.129-.37.313-.47.53-.09.217-.12.457-.07.688.04.231.16.444.34.61a1.298 1.298 0 001.37.253c.23-.092.43-.246.56-.444.14-.197.21-.428.21-.664 0-.309-.13-.605-.37-.824a1.258 1.258 0 00-.87-.34zM1197.41 51.753c-.25-.003-.49.063-.7.192a1.162 1.162 0 00-.55 1.218c.05.231.17.443.35.61.17.167.4.28.64.325.25.045.5.02.73-.072.23-.092.42-.246.56-.444.14-.197.21-.428.2-.664 0-.307-.13-.6-.36-.818a1.289 1.289 0 00-.87-.347zM1204.86 51.753c-.25-.003-.49.063-.7.192-.21.129-.38.313-.47.53-.1.217-.13.457-.08.688.05.231.17.444.35.61.17.167.4.28.64.325.24.045.5.02.73-.072.23-.092.42-.246.56-.444.13-.197.2-.428.2-.664 0-.307-.14-.6-.37-.818a1.283 1.283 0 00-.86-.347zM1108.08 61.583c.68 0 1.23-.521 1.23-1.165 0-.643-.55-1.165-1.23-1.165-.68 0-1.23.522-1.23 1.165 0 .644.55 1.165 1.23 1.165zM1115.53 59.253c-.25-.003-.49.063-.7.192-.21.129-.38.313-.47.53-.1.217-.13.456-.08.688.05.231.17.444.34.61a1.323 1.323 0 001.38.253c.23-.092.42-.246.56-.444.13-.197.2-.428.2-.664 0-.307-.14-.6-.37-.818a1.283 1.283 0 00-.86-.347zM1122.96 61.583c.68 0 1.23-.521 1.23-1.165 0-.643-.55-1.165-1.23-1.165-.68 0-1.23.522-1.23 1.165 0 .644.55 1.165 1.23 1.165zM1130.4 59.253c-.24 0-.49.07-.69.201-.21.13-.37.317-.46.534-.1.217-.12.456-.07.686.05.23.17.44.35.606.17.164.4.276.64.32.25.043.5.017.73-.076.22-.092.42-.246.55-.444.14-.196.21-.427.21-.662a1.17 1.17 0 00-.78-1.081 1.277 1.277 0 00-.48-.084zM1137.85 61.583c.68 0 1.23-.521 1.23-1.165 0-.643-.55-1.165-1.23-1.165-.68 0-1.23.522-1.23 1.165 0 .644.55 1.165 1.23 1.165zM1145.3 59.253c-.25-.003-.49.063-.7.192-.21.129-.38.313-.47.53-.1.217-.13.456-.08.688.05.231.17.444.35.61.17.167.4.28.64.325.24.045.5.02.73-.072.23-.092.42-.246.56-.444.13-.197.2-.428.2-.664 0-.309-.13-.605-.36-.824a1.258 1.258 0 00-.87-.34zM1152.73 61.583c.68 0 1.23-.521 1.23-1.165 0-.643-.55-1.165-1.23-1.165-.68 0-1.23.522-1.23 1.165 0 .644.55 1.165 1.23 1.165zM1160.19 59.253c-.25-.003-.49.063-.7.192-.21.129-.37.313-.47.53-.09.217-.12.456-.07.688.04.231.16.444.34.61a1.298 1.298 0 001.37.253c.23-.092.43-.246.56-.444.14-.197.21-.428.21-.664a1.177 1.177 0 00-.37-.818 1.289 1.289 0 00-.87-.347zM1167.62 59.253c-.25 0-.49.07-.7.201-.2.13-.36.317-.46.534-.09.217-.11.456-.06.686.05.23.17.44.34.606.18.164.41.276.65.32.24.043.5.017.72-.076.23-.092.43-.246.56-.444.14-.196.21-.427.2-.662 0-.154-.03-.307-.09-.45a1.394 1.394 0 00-.27-.38 1.277 1.277 0 00-.89-.335zM1175.07 61.583c.68 0 1.23-.521 1.23-1.165 0-.643-.55-1.165-1.23-1.165-.68 0-1.23.522-1.23 1.165 0 .644.55 1.165 1.23 1.165zM1182.52 59.253c-.25 0-.49.07-.7.201-.21.13-.37.317-.46.534-.1.217-.12.456-.07.686.05.23.17.44.35.606.18.164.4.276.64.32.25.043.5.017.73-.076.23-.092.42-.246.56-.444.13-.196.2-.427.2-.662a1.17 1.17 0 00-.78-1.081 1.26 1.26 0 00-.47-.084zM1189.96 61.583c.68 0 1.24-.521 1.24-1.165 0-.643-.56-1.165-1.24-1.165-.68 0-1.23.522-1.23 1.165 0 .644.55 1.165 1.23 1.165zM1197.41 59.253c-.25-.003-.49.063-.7.192a1.161 1.161 0 00-.55 1.218c.05.231.17.443.35.61.17.167.4.28.64.325.25.045.5.02.73-.072.23-.092.42-.246.56-.444.14-.197.21-.428.2-.664 0-.307-.13-.6-.36-.818a1.289 1.289 0 00-.87-.347zM1204.84 61.583c.68 0 1.23-.521 1.23-1.165 0-.643-.55-1.165-1.23-1.165-.68 0-1.23.522-1.23 1.165 0 .644.55 1.165 1.23 1.165zM1212.29 59.253c-.25 0-.49.07-.7.201-.21.13-.37.317-.46.534-.09.217-.12.456-.07.686.05.23.17.44.35.606.18.164.4.276.64.32.25.043.5.017.73-.076.23-.092.42-.246.56-.444.13-.196.2-.427.2-.662 0-.154-.03-.307-.1-.45a1.068 1.068 0 00-.27-.38 1.21 1.21 0 00-.41-.251 1.26 1.26 0 00-.47-.084zM1101.88 67.918c0-.29-.11-.57-.32-.783-.29.638-.58 1.293-.83 1.948.31-.018.61-.15.82-.366.22-.216.34-.502.33-.799zM1108.08 69.083c.68 0 1.23-.521 1.23-1.165 0-.643-.55-1.165-1.23-1.165-.68 0-1.23.522-1.23 1.165 0 .644.55 1.165 1.23 1.165zM1115.53 66.753c-.25-.004-.49.063-.7.192-.21.129-.38.313-.47.53-.1.217-.13.456-.08.688.05.23.17.443.34.61a1.324 1.324 0 001.38.253c.23-.092.42-.246.56-.444.13-.197.2-.428.2-.664 0-.307-.14-.601-.37-.818a1.284 1.284 0 00-.86-.347zM1122.96 69.083c.68 0 1.23-.521 1.23-1.165 0-.643-.55-1.165-1.23-1.165-.68 0-1.23.522-1.23 1.165 0 .644.55 1.165 1.23 1.165zM1130.4 66.753c-.24 0-.49.07-.69.2-.21.132-.37.318-.46.535-.1.217-.12.456-.07.686.05.23.17.44.35.605.17.165.4.276.64.32.25.044.5.018.73-.075.22-.092.42-.247.55-.444.14-.197.21-.427.21-.662a1.17 1.17 0 00-.78-1.082 1.28 1.28 0 00-.48-.083zM1137.85 69.083c.68 0 1.23-.521 1.23-1.165 0-.643-.55-1.165-1.23-1.165-.68 0-1.23.522-1.23 1.165 0 .644.55 1.165 1.23 1.165zM1145.3 66.753c-.25-.004-.49.063-.7.192-.21.129-.38.313-.47.53-.1.217-.13.456-.08.688.05.23.17.443.35.61.17.166.4.28.64.325.24.045.5.02.73-.072.23-.092.42-.246.56-.444.13-.197.2-.428.2-.664 0-.309-.13-.605-.36-.824a1.258 1.258 0 00-.87-.34zM1152.73 69.083c.68 0 1.23-.521 1.23-1.165 0-.643-.55-1.165-1.23-1.165-.68 0-1.23.522-1.23 1.165 0 .644.55 1.165 1.23 1.165zM1160.19 66.753c-.25-.004-.49.063-.7.192-.21.129-.37.313-.47.53-.09.217-.12.456-.07.688.04.23.16.443.34.61a1.298 1.298 0 001.37.253c.23-.092.43-.246.56-.444.14-.197.21-.428.21-.664a1.177 1.177 0 00-.37-.818 1.29 1.29 0 00-.87-.347zM1167.62 66.753c-.25 0-.49.07-.7.2-.2.132-.36.318-.46.535-.09.217-.11.456-.06.686.05.23.17.44.34.605.18.165.41.276.65.32.24.044.5.018.72-.075.23-.092.43-.247.56-.444.14-.197.21-.427.2-.662 0-.154-.03-.307-.09-.45a1.393 1.393 0 00-.27-.38 1.28 1.28 0 00-.89-.335zM1175.07 69.083c.68 0 1.23-.521 1.23-1.165 0-.643-.55-1.165-1.23-1.165-.68 0-1.23.522-1.23 1.165 0 .644.55 1.165 1.23 1.165zM1182.52 66.753c-.25 0-.49.07-.7.2-.21.132-.37.318-.46.535-.1.217-.12.456-.07.686.05.23.17.44.35.605.18.165.4.276.64.32.25.044.5.018.73-.075.23-.092.42-.247.56-.444.13-.197.2-.427.2-.662a1.17 1.17 0 00-.78-1.082 1.264 1.264 0 00-.47-.083zM1189.96 69.083c.68 0 1.24-.521 1.24-1.165 0-.643-.56-1.165-1.24-1.165-.68 0-1.23.522-1.23 1.165 0 .644.55 1.165 1.23 1.165zM1197.41 66.753c-.25-.004-.49.063-.7.192a1.161 1.161 0 00-.55 1.218c.05.23.17.443.35.61.17.166.4.28.64.325.25.045.5.02.73-.072.23-.092.42-.246.56-.444.14-.197.21-.428.2-.664 0-.307-.13-.601-.36-.818a1.29 1.29 0 00-.87-.347zM1204.84 69.083c.68 0 1.23-.521 1.23-1.165 0-.643-.55-1.165-1.23-1.165-.68 0-1.23.522-1.23 1.165 0 .644.55 1.165 1.23 1.165zM1212.29 66.753c-.25 0-.49.07-.7.2-.21.132-.37.318-.46.535-.09.217-.12.456-.07.686.05.23.17.44.35.605.18.165.4.276.64.32.25.044.5.018.73-.075.23-.092.42-.247.56-.444.13-.197.2-.427.2-.662 0-.154-.03-.307-.1-.45a1.068 1.068 0 00-.27-.38 1.21 1.21 0 00-.41-.251 1.264 1.264 0 00-.47-.084zM1219.66 69.083c-.27-.655-.54-1.31-.83-1.948-.11.104-.19.226-.25.36a1.119 1.119 0 00.26 1.221c.21.218.5.349.82.367zM1100.63 76.583c.68 0 1.24-.521 1.24-1.165 0-.643-.56-1.165-1.24-1.165-.68 0-1.23.522-1.23 1.165 0 .644.55 1.165 1.23 1.165zM1108.08 76.583c.68 0 1.23-.521 1.23-1.165 0-.643-.55-1.165-1.23-1.165-.68 0-1.23.522-1.23 1.165 0 .644.55 1.165 1.23 1.165zM1115.53 74.253c-.25-.004-.49.063-.7.192-.21.129-.38.313-.47.53-.1.217-.13.456-.08.688.05.23.17.443.34.61a1.325 1.325 0 001.38.253c.23-.092.42-.246.56-.444.13-.197.2-.428.2-.664 0-.307-.14-.601-.37-.819a1.284 1.284 0 00-.86-.346zM1122.96 76.583c.68 0 1.23-.521 1.23-1.165 0-.643-.55-1.165-1.23-1.165-.68 0-1.23.522-1.23 1.165 0 .644.55 1.165 1.23 1.165zM1130.4 74.253c-.24 0-.49.07-.69.2-.21.132-.37.317-.46.535-.1.217-.12.456-.07.686.05.23.17.44.35.605.17.165.4.276.64.32.25.044.5.017.73-.075.22-.092.42-.247.55-.444.14-.197.21-.427.21-.662a1.17 1.17 0 00-.78-1.082 1.279 1.279 0 00-.48-.083zM1137.85 76.583c.68 0 1.23-.521 1.23-1.165 0-.643-.55-1.165-1.23-1.165-.68 0-1.23.522-1.23 1.165 0 .644.55 1.165 1.23 1.165zM1145.3 74.253c-.25-.004-.49.063-.7.192-.21.129-.38.313-.47.53-.1.217-.13.456-.08.688.05.23.17.443.35.61.17.166.4.28.64.325.24.045.5.02.73-.072.23-.092.42-.246.56-.444.13-.197.2-.428.2-.664 0-.309-.13-.605-.36-.824a1.258 1.258 0 00-.87-.34zM1152.73 76.583c.68 0 1.23-.521 1.23-1.165 0-.643-.55-1.165-1.23-1.165-.68 0-1.23.522-1.23 1.165 0 .644.55 1.165 1.23 1.165zM1160.19 74.253c-.25-.004-.49.063-.7.192-.21.129-.37.313-.47.53-.09.217-.12.456-.07.688.04.23.16.443.34.61a1.298 1.298 0 001.37.253c.23-.092.43-.246.56-.444.14-.197.21-.428.21-.664a1.177 1.177 0 00-.37-.819 1.29 1.29 0 00-.87-.346zM1167.62 74.253c-.25 0-.49.07-.7.2-.2.132-.36.317-.46.535-.09.217-.11.456-.06.686.05.23.17.44.34.605.18.165.41.276.65.32.24.044.5.017.72-.075.23-.092.43-.247.56-.444.14-.197.21-.427.2-.662 0-.154-.03-.307-.09-.45a1.394 1.394 0 00-.27-.38 1.279 1.279 0 00-.89-.335zM1175.07 76.583c.68 0 1.23-.521 1.23-1.165 0-.643-.55-1.165-1.23-1.165-.68 0-1.23.522-1.23 1.165 0 .644.55 1.165 1.23 1.165zM1182.52 74.253c-.25 0-.49.07-.7.2-.21.132-.37.317-.46.535-.1.217-.12.456-.07.686.05.23.17.44.35.605.18.165.4.276.64.32.25.044.5.017.73-.075.23-.092.42-.247.56-.444.13-.197.2-.427.2-.662a1.17 1.17 0 00-.78-1.082 1.262 1.262 0 00-.47-.083zM1189.96 76.583c.68 0 1.24-.521 1.24-1.165 0-.643-.56-1.165-1.24-1.165-.68 0-1.23.522-1.23 1.165 0 .644.55 1.165 1.23 1.165zM1197.41 74.253c-.25-.004-.49.063-.7.192a1.162 1.162 0 00-.55 1.218c.05.23.17.443.35.61.17.166.4.28.64.325.25.045.5.02.73-.072.23-.092.42-.246.56-.444.14-.197.21-.428.2-.664 0-.307-.13-.601-.36-.819a1.29 1.29 0 00-.87-.346zM1204.84 76.583c.68 0 1.23-.521 1.23-1.165 0-.643-.55-1.165-1.23-1.165-.68 0-1.23.522-1.23 1.165 0 .644.55 1.165 1.23 1.165zM1212.29 74.253c-.25 0-.49.07-.7.2-.21.132-.37.317-.46.535-.09.217-.12.456-.07.686.05.23.17.44.35.605.18.165.4.276.64.32.25.044.5.017.73-.075.23-.092.42-.247.56-.444.13-.197.2-.427.2-.662 0-.154-.03-.307-.1-.45a1.068 1.068 0 00-.27-.38 1.21 1.21 0 00-.41-.251 1.262 1.262 0 00-.47-.084zM1219.73 76.583c.68 0 1.24-.521 1.24-1.165 0-.643-.56-1.165-1.24-1.165-.68 0-1.23.522-1.23 1.165 0 .644.55 1.165 1.23 1.165zM1100.63 81.753c-.24 0-.49.07-.69.2-.21.132-.37.317-.46.535-.1.217-.12.456-.07.686.05.23.17.44.35.605.17.165.4.276.64.32.25.043.5.017.73-.075.22-.092.42-.247.55-.444.14-.197.21-.427.2-.662 0-.155-.03-.308-.09-.45a1.21 1.21 0 00-.27-.38 1.279 1.279 0 00-.89-.335zM1108.08 81.753c-.25-.004-.49.063-.7.192a1.161 1.161 0 00-.55 1.218c.05.23.17.443.35.61.17.166.4.28.64.325.25.045.5.02.73-.072.23-.092.42-.246.56-.444.14-.197.21-.428.2-.664 0-.309-.13-.605-.36-.824a1.258 1.258 0 00-.87-.341zM1115.53 81.753c-.25-.004-.49.063-.7.192-.21.128-.38.313-.47.53-.1.217-.13.456-.08.688.05.23.17.443.34.61a1.324 1.324 0 001.38.253c.23-.092.42-.246.56-.444.13-.197.2-.428.2-.664 0-.308-.14-.601-.37-.819a1.284 1.284 0 00-.86-.346zM1122.98 81.753c-.25-.004-.5.063-.71.192-.2.128-.37.313-.47.53-.09.217-.12.456-.07.688.05.23.17.443.34.61.18.166.4.28.65.325.24.045.5.02.72-.072.23-.092.43-.246.56-.444.14-.197.21-.428.21-.664a1.177 1.177 0 00-.37-.819 1.284 1.284 0 00-.86-.346zM1130.4 81.753c-.24 0-.49.07-.69.2-.21.132-.37.317-.46.535-.1.217-.12.456-.07.686.05.23.17.44.35.605.17.165.4.276.64.32.25.043.5.017.73-.075.22-.092.42-.247.55-.444.14-.197.21-.427.21-.662a1.17 1.17 0 00-.78-1.082 1.279 1.279 0 00-.48-.083zM1137.87 81.753c-.25 0-.49.07-.7.2-.2.132-.36.317-.46.535-.09.217-.11.456-.06.686.05.23.17.44.34.605a1.308 1.308 0 001.37.245c.23-.092.43-.247.56-.444.14-.197.21-.427.2-.662 0-.155-.03-.308-.09-.45a1.24 1.24 0 00-.28-.38 1.167 1.167 0 00-.4-.252 1.314 1.314 0 00-.48-.083zM1145.3 81.753c-.25-.004-.49.063-.7.192-.21.128-.38.313-.47.53-.1.217-.13.456-.08.688.05.23.17.443.35.61.17.166.4.28.64.325.24.045.5.02.73-.072.23-.092.42-.246.56-.444.13-.197.2-.428.2-.664 0-.309-.13-.605-.36-.824a1.258 1.258 0 00-.87-.341zM1152.75 81.753c-.25-.004-.5.063-.71.192-.2.128-.37.313-.46.53-.1.217-.13.456-.08.688.05.23.17.443.34.61.18.166.4.28.65.325.24.045.5.02.72-.072.23-.092.43-.246.57-.444.13-.197.2-.428.2-.664a1.177 1.177 0 00-.37-.819 1.284 1.284 0 00-.86-.346zM1160.19 81.753c-.25-.004-.49.063-.7.192-.21.128-.37.313-.47.53-.09.217-.12.456-.07.688.04.23.16.443.34.61a1.298 1.298 0 001.37.253c.23-.092.43-.246.56-.444.14-.197.21-.428.21-.664a1.177 1.177 0 00-.37-.819 1.29 1.29 0 00-.87-.346zM1167.62 81.753c-.25 0-.49.07-.7.2-.2.132-.36.317-.46.535-.09.217-.11.456-.06.686.05.23.17.44.34.605.18.165.41.276.65.32.24.043.5.017.72-.075.23-.092.43-.247.56-.444.14-.197.21-.427.2-.662 0-.155-.03-.308-.09-.45a1.395 1.395 0 00-.27-.38 1.279 1.279 0 00-.89-.335zM1175.07 81.753c-.25 0-.49.07-.7.2-.2.132-.36.317-.46.535-.09.217-.12.456-.07.686.05.23.17.44.35.605a1.308 1.308 0 001.37.245c.23-.092.42-.247.56-.444.13-.197.2-.427.2-.662 0-.155-.03-.308-.1-.45a1.069 1.069 0 00-.27-.38 1.167 1.167 0 00-.4-.252 1.351 1.351 0 00-.48-.083zM1182.52 81.753c-.25 0-.49.07-.7.2-.21.132-.37.317-.46.535-.1.217-.12.456-.07.686.05.23.17.44.35.605.18.165.4.276.64.32.25.043.5.017.73-.075.23-.092.42-.247.56-.444.13-.197.2-.427.2-.662a1.17 1.17 0 00-.78-1.082 1.262 1.262 0 00-.47-.083zM1189.96 81.753c-.25-.004-.49.063-.7.192-.21.128-.37.313-.47.53-.09.217-.12.456-.07.688.04.23.16.443.34.61a1.298 1.298 0 001.37.253c.23-.092.43-.246.56-.444.14-.197.21-.428.21-.664 0-.309-.13-.605-.37-.824a1.258 1.258 0 00-.87-.341zM1197.41 81.753c-.25-.004-.49.063-.7.192a1.161 1.161 0 00-.55 1.218c.05.23.17.443.35.61.17.166.4.28.64.325.25.045.5.02.73-.072.23-.092.42-.246.56-.444.14-.197.21-.428.2-.664 0-.308-.13-.601-.36-.819a1.29 1.29 0 00-.87-.346zM1204.86 81.753c-.25-.004-.49.063-.7.192-.21.128-.38.313-.47.53-.1.217-.13.456-.08.688.05.23.17.443.35.61.17.166.4.28.64.325.24.045.5.02.73-.072.23-.092.42-.246.56-.444.13-.197.2-.428.2-.664 0-.308-.14-.601-.37-.819a1.284 1.284 0 00-.86-.346zM1212.29 81.753c-.25 0-.49.07-.7.2-.21.132-.37.317-.46.535-.09.217-.12.456-.07.686.05.23.17.44.35.605.18.165.4.276.64.32.25.043.5.017.73-.075.23-.092.42-.247.56-.444.13-.197.2-.427.2-.662 0-.155-.03-.308-.1-.45a1.069 1.069 0 00-.27-.38 1.21 1.21 0 00-.41-.252 1.262 1.262 0 00-.47-.083zM1219.73 81.753c-.24 0-.49.07-.69.2-.21.132-.37.317-.46.535-.1.217-.12.456-.07.686.05.23.17.44.35.605.17.165.4.276.64.32.25.043.5.017.73-.075.22-.092.42-.247.55-.444.14-.197.21-.427.21-.662a1.17 1.17 0 00-.78-1.082 1.279 1.279 0 00-.48-.083zM1100.63 89.217c-.24 0-.49.07-.69.2-.21.131-.37.317-.46.534-.1.218-.12.456-.07.686.05.23.17.441.35.606.17.165.4.276.64.32.25.043.5.017.73-.075.22-.093.42-.247.55-.444.14-.197.21-.428.2-.662 0-.155-.03-.308-.09-.45a1.21 1.21 0 00-.27-.38 1.279 1.279 0 00-.89-.335zM1108.08 89.217c-.25-.004-.49.063-.7.191a1.162 1.162 0 00-.55 1.218c.05.231.17.444.35.61.17.167.4.28.64.325.25.045.5.02.73-.072.23-.091.42-.246.56-.443.14-.198.21-.429.2-.664 0-.31-.13-.606-.36-.824a1.258 1.258 0 00-.87-.341zM1115.53 89.217c-.25-.004-.49.063-.7.191-.21.129-.38.314-.47.53-.1.218-.13.457-.08.688.05.231.17.444.34.61a1.324 1.324 0 001.38.253c.23-.091.42-.246.56-.443.13-.198.2-.429.2-.664 0-.308-.14-.602-.37-.819a1.284 1.284 0 00-.86-.346zM1122.98 89.217c-.25-.004-.5.063-.71.191-.2.129-.37.314-.47.53-.09.218-.12.457-.07.688.05.231.17.444.34.61.18.167.4.28.65.325.24.045.5.02.72-.072.23-.091.43-.246.56-.443.14-.198.21-.429.21-.664a1.177 1.177 0 00-.37-.819 1.284 1.284 0 00-.86-.346zM1130.4 89.217c-.24 0-.49.07-.69.2-.21.131-.37.317-.46.534-.1.218-.12.456-.07.686.05.23.17.441.35.606.17.165.4.276.64.32.25.043.5.017.73-.075.22-.093.42-.247.55-.444.14-.197.21-.428.21-.662a1.17 1.17 0 00-.78-1.082 1.279 1.279 0 00-.48-.083zM1137.87 89.217c-.25 0-.49.07-.7.2-.2.131-.36.317-.46.534-.09.218-.11.456-.06.686.05.23.17.441.34.606a1.308 1.308 0 001.37.245c.23-.093.43-.247.56-.444.14-.197.21-.428.2-.662 0-.155-.03-.308-.09-.45a1.24 1.24 0 00-.28-.38 1.166 1.166 0 00-.4-.252 1.314 1.314 0 00-.48-.083zM1145.3 89.217c-.25-.004-.49.063-.7.191-.21.129-.38.314-.47.53-.1.218-.13.457-.08.688.05.231.17.444.35.61.17.167.4.28.64.325.24.045.5.02.73-.072.23-.091.42-.246.56-.443.13-.198.2-.429.2-.664 0-.31-.13-.606-.36-.824a1.258 1.258 0 00-.87-.341zM1152.75 89.217c-.25-.004-.5.063-.71.191-.2.129-.37.314-.46.53-.1.218-.13.457-.08.688.05.231.17.444.34.61.18.167.4.28.65.325.24.045.5.02.72-.072.23-.091.43-.246.57-.443.13-.198.2-.429.2-.664a1.177 1.177 0 00-.37-.819 1.284 1.284 0 00-.86-.346zM1160.19 89.217c-.25-.004-.49.063-.7.191-.21.129-.37.314-.47.53-.09.218-.12.457-.07.688.04.231.16.444.34.61a1.298 1.298 0 001.37.253c.23-.091.43-.246.56-.443.14-.198.21-.429.21-.664a1.177 1.177 0 00-.37-.819 1.29 1.29 0 00-.87-.346zM1167.62 89.217c-.25 0-.49.07-.7.2-.2.131-.36.317-.46.534-.09.218-.11.456-.06.686.05.23.17.441.34.606.18.165.41.276.65.32.24.043.5.017.72-.075.23-.093.43-.247.56-.444.14-.197.21-.428.2-.662 0-.155-.03-.308-.09-.45a1.394 1.394 0 00-.27-.38 1.279 1.279 0 00-.89-.335zM1175.07 89.217c-.25 0-.49.07-.7.2-.2.131-.36.317-.46.534-.09.218-.12.456-.07.686.05.23.17.441.35.606a1.308 1.308 0 001.37.245c.23-.093.42-.247.56-.444.13-.197.2-.428.2-.662 0-.155-.03-.308-.1-.45a1.068 1.068 0 00-.27-.38 1.166 1.166 0 00-.4-.252 1.351 1.351 0 00-.48-.083zM1182.52 89.217c-.25 0-.49.07-.7.2-.21.131-.37.317-.46.534-.1.218-.12.456-.07.686.05.23.17.441.35.606.18.165.4.276.64.32.25.043.5.017.73-.075.23-.093.42-.247.56-.444.13-.197.2-.428.2-.662a1.17 1.17 0 00-.78-1.082 1.262 1.262 0 00-.47-.083zM1189.96 89.217c-.25-.004-.49.063-.7.191-.21.129-.37.314-.47.53-.09.218-.12.457-.07.688.04.231.16.444.34.61a1.298 1.298 0 001.37.253c.23-.091.43-.246.56-.443.14-.198.21-.429.21-.664 0-.31-.13-.606-.37-.824a1.258 1.258 0 00-.87-.341zM1197.41 89.217c-.25-.004-.49.063-.7.191a1.162 1.162 0 00-.55 1.218c.05.231.17.444.35.61.17.167.4.28.64.325.25.045.5.02.73-.072.23-.091.42-.246.56-.443.14-.198.21-.429.2-.664 0-.308-.13-.602-.36-.819a1.29 1.29 0 00-.87-.346zM1204.86 89.217c-.25-.004-.49.063-.7.191-.21.129-.38.314-.47.53-.1.218-.13.457-.08.688.05.231.17.444.35.61.17.167.4.28.64.325.24.045.5.02.73-.072.23-.091.42-.246.56-.443.13-.198.2-.429.2-.664 0-.308-.14-.602-.37-.819a1.284 1.284 0 00-.86-.346zM1212.29 89.217c-.25 0-.49.07-.7.2-.21.131-.37.317-.46.534-.09.218-.12.456-.07.686.05.23.17.441.35.606.18.165.4.276.64.32.25.043.5.017.73-.075.23-.093.42-.247.56-.444.13-.197.2-.428.2-.662 0-.155-.03-.308-.1-.45a1.068 1.068 0 00-.27-.38 1.21 1.21 0 00-.41-.252 1.262 1.262 0 00-.47-.083zM1219.73 89.217c-.24 0-.49.07-.69.2-.21.131-.37.317-.46.534-.1.218-.12.456-.07.686.05.23.17.441.35.606.17.165.4.276.64.32.25.043.5.017.73-.075.22-.093.42-.247.55-.444.14-.197.21-.428.21-.662a1.17 1.17 0 00-.78-1.082 1.279 1.279 0 00-.48-.083zM1100.63 99.083c.68 0 1.24-.522 1.24-1.165 0-.644-.56-1.165-1.24-1.165-.68 0-1.23.522-1.23 1.165s.55 1.165 1.23 1.165zM1108.08 99.083c.68 0 1.23-.522 1.23-1.165 0-.644-.55-1.165-1.23-1.165-.68 0-1.23.522-1.23 1.165s.55 1.165 1.23 1.165zM1115.53 96.753c-.25-.004-.49.063-.7.192-.21.128-.38.313-.47.53-.1.217-.13.456-.08.687.05.232.17.444.34.61a1.325 1.325 0 001.38.254c.23-.092.42-.247.56-.444.13-.197.2-.428.2-.664 0-.308-.14-.601-.37-.819a1.284 1.284 0 00-.86-.346zM1122.96 99.083c.68 0 1.23-.522 1.23-1.165 0-.644-.55-1.165-1.23-1.165-.68 0-1.23.522-1.23 1.165s.55 1.165 1.23 1.165zM1130.4 96.753c-.24 0-.49.07-.69.2-.21.132-.37.317-.46.535-.1.217-.12.456-.07.686.05.23.17.44.35.605.17.165.4.276.64.32.25.043.5.017.73-.075.22-.092.42-.247.55-.444.14-.197.21-.427.21-.662a1.17 1.17 0 00-.78-1.082 1.279 1.279 0 00-.48-.083zM1137.85 99.083c.68 0 1.23-.522 1.23-1.165 0-.644-.55-1.165-1.23-1.165-.68 0-1.23.522-1.23 1.165s.55 1.165 1.23 1.165zM1145.3 96.753c-.25-.004-.49.063-.7.192-.21.128-.38.313-.47.53-.1.217-.13.456-.08.687.05.232.17.444.35.61.17.167.4.28.64.325.24.045.5.02.73-.071.23-.092.42-.247.56-.444.13-.197.2-.428.2-.664 0-.31-.13-.605-.36-.824a1.258 1.258 0 00-.87-.341zM1152.73 99.083c.68 0 1.23-.522 1.23-1.165 0-.644-.55-1.165-1.23-1.165-.68 0-1.23.522-1.23 1.165s.55 1.165 1.23 1.165zM1160.19 96.753c-.25-.004-.49.063-.7.192-.21.128-.37.313-.47.53-.09.217-.12.456-.07.687.04.232.16.444.34.61a1.298 1.298 0 001.37.253c.23-.091.43-.246.56-.443.14-.197.21-.428.21-.664a1.177 1.177 0 00-.37-.819 1.29 1.29 0 00-.87-.346zM1167.62 96.753c-.25 0-.49.07-.7.2-.2.132-.36.317-.46.535-.09.217-.11.456-.06.686.05.23.17.44.34.605.18.165.41.276.65.32.24.043.5.017.72-.075.23-.092.43-.247.56-.444.14-.197.21-.427.2-.662 0-.155-.03-.308-.09-.45a1.394 1.394 0 00-.27-.38 1.279 1.279 0 00-.89-.335zM1175.07 99.083c.68 0 1.23-.522 1.23-1.165 0-.644-.55-1.165-1.23-1.165-.68 0-1.23.522-1.23 1.165s.55 1.165 1.23 1.165zM1182.52 96.753c-.25 0-.49.07-.7.2-.21.132-.37.317-.46.535-.1.217-.12.456-.07.686.05.23.17.44.35.605.18.165.4.276.64.32.25.043.5.017.73-.075.23-.092.42-.247.56-.444.13-.197.2-.427.2-.662a1.17 1.17 0 00-.78-1.082 1.262 1.262 0 00-.47-.083zM1189.96 99.083c.68 0 1.24-.522 1.24-1.165 0-.644-.56-1.165-1.24-1.165-.68 0-1.23.522-1.23 1.165s.55 1.165 1.23 1.165zM1197.41 96.753c-.25-.004-.49.063-.7.192a1.162 1.162 0 00-.55 1.218c.05.23.17.443.35.61.17.166.4.28.64.324.25.045.5.02.73-.071.23-.092.42-.247.56-.444.14-.197.21-.428.2-.664 0-.308-.13-.601-.36-.819a1.29 1.29 0 00-.87-.346zM1204.84 99.083c.68 0 1.23-.522 1.23-1.165 0-.644-.55-1.165-1.23-1.165-.68 0-1.23.522-1.23 1.165s.55 1.165 1.23 1.165zM1212.29 96.753c-.25 0-.49.07-.7.2-.21.132-.37.317-.46.535-.09.217-.12.456-.07.686.05.23.17.44.35.605.18.165.4.276.64.32.25.043.5.017.73-.075.23-.092.42-.247.56-.444.13-.197.2-.427.2-.662 0-.155-.03-.308-.1-.45a1.068 1.068 0 00-.27-.38 1.21 1.21 0 00-.41-.252 1.262 1.262 0 00-.47-.083zM1219.73 99.083c.68 0 1.24-.522 1.24-1.165 0-.644-.56-1.165-1.24-1.165-.68 0-1.23.522-1.23 1.165s.55 1.165 1.23 1.165zM1100.63 104.253c-.24 0-.49.07-.69.201-.21.13-.37.316-.46.534-.1.217-.12.456-.07.686.05.23.17.44.35.605.17.165.4.276.64.32.25.043.5.017.73-.075.22-.092.42-.247.55-.444.14-.197.21-.427.2-.662 0-.155-.03-.308-.09-.45a1.198 1.198 0 00-.27-.38 1.276 1.276 0 00-.89-.335zM1108.08 104.253a1.29 1.29 0 00-.7.192 1.16 1.16 0 00-.55 1.217c.05.232.17.444.35.611.17.166.4.279.64.324.25.045.5.02.73-.071.23-.092.42-.247.56-.444.14-.197.21-.429.2-.664 0-.309-.13-.605-.36-.824a1.26 1.26 0 00-.87-.341zM1115.53 104.253a1.29 1.29 0 00-.7.192c-.21.128-.38.313-.47.53-.1.217-.13.456-.08.687.05.232.17.444.34.611a1.327 1.327 0 001.38.253c.23-.092.42-.247.56-.444.13-.197.2-.429.2-.664 0-.308-.14-.601-.37-.819a1.287 1.287 0 00-.86-.346zM1122.98 104.253c-.25-.004-.5.063-.71.192-.2.128-.37.313-.47.53-.09.217-.12.456-.07.687.05.232.17.444.34.611.18.166.4.279.65.324.24.045.5.02.72-.071.23-.092.43-.247.56-.444.14-.197.21-.429.21-.664a1.178 1.178 0 00-.37-.819 1.287 1.287 0 00-.86-.346zM1130.4 104.253c-.24 0-.49.07-.69.201-.21.13-.37.316-.46.534-.1.217-.12.456-.07.686.05.23.17.44.35.605.17.165.4.276.64.32.25.043.5.017.73-.075.22-.092.42-.247.55-.444.14-.197.21-.427.21-.662a1.165 1.165 0 00-.37-.83 1.276 1.276 0 00-.89-.335zM1137.87 104.253c-.25 0-.49.07-.7.201-.2.13-.36.316-.46.534a1.15 1.15 0 00-.06.686c.05.23.17.44.34.605.18.165.4.276.65.32.24.043.49.017.72-.075.23-.092.43-.247.56-.444.14-.197.21-.427.2-.662 0-.155-.03-.308-.09-.45a1.229 1.229 0 00-.28-.38 1.168 1.168 0 00-.4-.252 1.312 1.312 0 00-.48-.083zM1145.3 104.253a1.29 1.29 0 00-.7.192c-.21.128-.38.313-.47.53-.1.217-.13.456-.08.687.05.232.17.444.35.611.17.166.4.279.64.324.24.045.5.02.73-.071.23-.092.42-.247.56-.444.13-.197.2-.429.2-.664 0-.309-.13-.605-.36-.824a1.26 1.26 0 00-.87-.341zM1152.75 104.253c-.25-.004-.5.063-.71.192-.2.128-.37.313-.46.53-.1.217-.13.456-.08.687.05.232.17.444.34.611.18.166.4.279.65.324a1.296 1.296 0 001.29-.515c.13-.197.2-.429.2-.664a1.178 1.178 0 00-.37-.819 1.287 1.287 0 00-.86-.346zM1160.19 104.253a1.29 1.29 0 00-.7.192 1.21 1.21 0 00-.47.53c-.09.217-.12.456-.07.687.04.232.16.444.34.611a1.305 1.305 0 001.37.253c.23-.092.43-.247.56-.444.14-.197.21-.429.21-.664a1.178 1.178 0 00-.37-.819 1.293 1.293 0 00-.87-.346zM1167.62 104.253c-.25 0-.49.07-.7.201-.2.13-.36.316-.46.534a1.15 1.15 0 00-.06.686c.05.23.17.44.34.605a1.307 1.307 0 001.37.245c.23-.092.43-.247.56-.444.14-.197.21-.427.2-.662 0-.155-.03-.308-.09-.45a1.38 1.38 0 00-.27-.38 1.276 1.276 0 00-.89-.335zM1175.07 104.253c-.25 0-.49.07-.7.201-.2.13-.36.316-.46.534-.09.217-.12.456-.07.686.05.23.17.44.35.605.18.165.4.276.65.32.24.043.49.017.72-.075.23-.092.42-.247.56-.444.13-.197.2-.427.2-.662 0-.155-.03-.308-.1-.45a1.06 1.06 0 00-.27-.38 1.168 1.168 0 00-.4-.252 1.349 1.349 0 00-.48-.083zM1182.52 104.253c-.25 0-.49.07-.7.201-.21.13-.37.316-.46.534-.1.217-.12.456-.07.686.05.23.17.44.35.605.18.165.4.276.64.32.25.043.5.017.73-.075.23-.092.42-.247.56-.444.13-.197.2-.427.2-.662 0-.155-.04-.308-.1-.45a1.06 1.06 0 00-.27-.38 1.21 1.21 0 00-.41-.252 1.26 1.26 0 00-.47-.083zM1189.96 104.253a1.29 1.29 0 00-.7.192 1.21 1.21 0 00-.47.53c-.09.217-.12.456-.07.687.04.232.16.444.34.611a1.305 1.305 0 001.37.253c.23-.092.43-.247.56-.444.14-.197.21-.429.21-.664 0-.309-.13-.605-.37-.824a1.26 1.26 0 00-.87-.341zM1197.41 104.253a1.29 1.29 0 00-.7.192 1.16 1.16 0 00-.55 1.217c.05.232.17.444.35.611.17.166.4.279.64.324.25.045.5.02.73-.071.23-.092.42-.247.56-.444.14-.197.21-.429.2-.664 0-.308-.13-.601-.36-.819a1.293 1.293 0 00-.87-.346zM1204.86 104.253a1.29 1.29 0 00-.7.192c-.21.128-.38.313-.47.53-.1.217-.13.456-.08.687.05.232.17.444.35.611.17.166.4.279.64.324.24.045.5.02.73-.071.23-.092.42-.247.56-.444.13-.197.2-.429.2-.664 0-.308-.14-.601-.37-.819a1.287 1.287 0 00-.86-.346zM1212.29 104.253c-.25 0-.49.07-.7.201-.21.13-.37.316-.46.534-.09.217-.12.456-.07.686.05.23.17.44.35.605.18.165.4.276.64.32.25.043.5.017.73-.075.23-.092.42-.247.56-.444.13-.197.2-.427.2-.662 0-.155-.03-.308-.1-.45a1.06 1.06 0 00-.27-.38 1.21 1.21 0 00-.41-.252 1.26 1.26 0 00-.47-.083zM1219.73 104.253c-.24 0-.49.07-.69.201-.21.13-.37.316-.46.534-.1.217-.12.456-.07.686.05.23.17.44.35.605.17.165.4.276.64.32.25.043.5.017.73-.075.22-.092.42-.247.55-.444.14-.197.21-.427.21-.662a1.165 1.165 0 00-.37-.83 1.276 1.276 0 00-.89-.335zM1100.73 111.753c.25.655.54 1.31.83 1.966.2-.223.32-.506.32-.801 0-.296-.12-.579-.33-.795a1.312 1.312 0 00-.82-.37zM1108.08 111.753a1.29 1.29 0 00-.7.192 1.16 1.16 0 00-.55 1.217c.05.232.17.444.35.611.17.166.4.279.64.324.25.045.5.02.73-.071.23-.092.42-.247.56-.444.14-.197.21-.429.2-.664 0-.309-.13-.605-.36-.824a1.26 1.26 0 00-.87-.341zM1115.53 111.753c-.25-.015-.51.044-.72.167-.22.123-.39.306-.5.524-.1.218-.13.46-.09.696.05.236.16.453.34.624a1.305 1.305 0 001.39.255c.23-.096.43-.256.56-.459.14-.203.2-.44.19-.679a1.125 1.125 0 00-.36-.777c-.21-.208-.5-.334-.81-.351zM1122.98 111.753c-.25-.004-.5.063-.71.192-.2.128-.37.313-.47.53-.09.217-.12.456-.07.687.05.232.17.444.34.611.18.166.4.279.65.324.24.045.5.02.72-.071.23-.092.43-.247.56-.444.14-.197.21-.429.21-.664a1.178 1.178 0 00-.37-.819 1.287 1.287 0 00-.86-.346zM1130.4 111.753c-.24 0-.49.07-.69.201-.21.13-.37.316-.46.534-.1.217-.12.456-.07.686.05.23.17.44.35.605.17.165.4.276.64.32.25.043.5.017.73-.075.22-.092.42-.247.55-.444.14-.197.21-.427.21-.662a1.165 1.165 0 00-.37-.83 1.276 1.276 0 00-.89-.335zM1137.87 111.753c-.25 0-.49.07-.7.201-.2.13-.36.316-.46.534a1.15 1.15 0 00-.06.686c.05.23.17.44.34.605.18.165.4.276.65.32.24.043.49.017.72-.075.23-.092.43-.247.56-.444.14-.197.21-.427.2-.662 0-.155-.03-.308-.09-.45a1.229 1.229 0 00-.28-.38 1.168 1.168 0 00-.4-.252 1.312 1.312 0 00-.48-.083zM1145.3 111.753a1.29 1.29 0 00-.7.192c-.21.128-.38.313-.47.53-.1.217-.13.456-.08.687.05.232.17.444.35.611.17.166.4.279.64.324.24.045.5.02.73-.071.23-.092.42-.247.56-.444.13-.197.2-.429.2-.664 0-.309-.13-.605-.36-.824a1.26 1.26 0 00-.87-.341zM1152.75 111.753c-.25-.004-.5.063-.71.192-.2.128-.37.313-.46.53-.1.217-.13.456-.08.687.05.232.17.444.34.611.18.166.4.279.65.324a1.296 1.296 0 001.29-.515c.13-.197.2-.429.2-.664a1.178 1.178 0 00-.37-.819 1.287 1.287 0 00-.86-.346zM1160.19 111.753a1.29 1.29 0 00-.7.192 1.21 1.21 0 00-.47.53c-.09.217-.12.456-.07.687.04.232.16.444.34.611a1.305 1.305 0 001.37.253c.23-.092.43-.247.56-.444.14-.197.21-.429.21-.664a1.178 1.178 0 00-.37-.819 1.293 1.293 0 00-.87-.346zM1167.62 111.753c-.25 0-.49.07-.7.201-.2.13-.36.316-.46.534a1.15 1.15 0 00-.06.686c.05.23.17.44.34.605a1.307 1.307 0 001.37.245c.23-.092.43-.247.56-.444.14-.197.21-.427.2-.662 0-.155-.03-.308-.09-.45a1.38 1.38 0 00-.27-.38 1.276 1.276 0 00-.89-.335zM1175.07 111.753c-.25.007-.49.084-.69.221-.2.137-.36.328-.44.547-.09.22-.11.46-.05.688.06.228.19.435.37.595.18.159.41.264.65.3.25.037.5.003.73-.095.22-.099.41-.259.54-.46a1.163 1.163 0 00.07-1.115 1.262 1.262 0 00-1.18-.681zM1182.52 111.753c-.25 0-.49.07-.7.201-.21.13-.37.316-.46.534-.1.217-.12.456-.07.686.05.23.17.44.35.605.18.165.4.276.64.32.25.043.5.017.73-.075.23-.092.42-.247.56-.444.13-.197.2-.427.2-.662 0-.155-.04-.308-.1-.45a1.06 1.06 0 00-.27-.38 1.21 1.21 0 00-.41-.252 1.26 1.26 0 00-.47-.083zM1189.96 111.753a1.29 1.29 0 00-.7.192 1.21 1.21 0 00-.47.53c-.09.217-.12.456-.07.687.04.232.16.444.34.611a1.305 1.305 0 001.37.253c.23-.092.43-.247.56-.444.14-.197.21-.429.21-.664 0-.309-.13-.605-.37-.824a1.26 1.26 0 00-.87-.341zM1197.41 111.753a1.29 1.29 0 00-.7.192 1.16 1.16 0 00-.55 1.217c.05.232.17.444.35.611.17.166.4.279.64.324.25.045.5.02.73-.071.23-.092.42-.247.56-.444.14-.197.21-.429.2-.664 0-.308-.13-.601-.36-.819a1.293 1.293 0 00-.87-.346zM1204.86 111.753a1.29 1.29 0 00-.7.192c-.21.128-.38.313-.47.53-.1.217-.13.456-.08.687.05.232.17.444.35.611.17.166.4.279.64.324.24.045.5.02.73-.071.23-.092.42-.247.56-.444.13-.197.2-.429.2-.664 0-.308-.14-.601-.37-.819a1.287 1.287 0 00-.86-.346zM1212.29 111.753c-.25 0-.49.07-.7.201-.21.13-.37.316-.46.534-.09.217-.12.456-.07.686.05.23.17.44.35.605.18.165.4.276.64.32.25.043.5.017.73-.075.23-.092.42-.247.56-.444.13-.197.2-.427.2-.662 0-.155-.03-.308-.1-.45a1.06 1.06 0 00-.27-.38 1.21 1.21 0 00-.41-.252 1.26 1.26 0 00-.47-.083zM1218.5 112.881c0 .297.12.584.33.801.29-.655.56-1.31.83-1.966-.32.019-.61.15-.82.366a1.12 1.12 0 00-.34.799zM1108.08 121.583c.68 0 1.23-.522 1.23-1.165 0-.644-.55-1.165-1.23-1.165-.68 0-1.23.521-1.23 1.165 0 .643.55 1.165 1.23 1.165zM1115.53 119.253a1.29 1.29 0 00-.7.192c-.21.128-.38.313-.47.53-.1.217-.13.456-.08.687.05.231.17.444.34.611a1.327 1.327 0 001.38.253c.23-.092.42-.247.56-.444.13-.197.2-.429.2-.664 0-.308-.14-.601-.37-.819a1.282 1.282 0 00-.86-.346zM1122.96 121.583c.68 0 1.23-.522 1.23-1.165 0-.644-.55-1.165-1.23-1.165-.68 0-1.23.521-1.23 1.165 0 .643.55 1.165 1.23 1.165zM1130.4 119.253c-.24 0-.49.07-.69.201-.21.13-.37.316-.46.534-.1.217-.12.456-.07.686.05.23.17.44.35.605.17.165.4.276.64.32.25.043.5.017.73-.075.22-.092.42-.247.55-.444.14-.197.21-.427.21-.662a1.165 1.165 0 00-.37-.831 1.276 1.276 0 00-.89-.334zM1137.85 121.583c.68 0 1.23-.522 1.23-1.165 0-.644-.55-1.165-1.23-1.165-.68 0-1.23.521-1.23 1.165 0 .643.55 1.165 1.23 1.165zM1145.3 119.253a1.29 1.29 0 00-.7.192c-.21.128-.38.313-.47.53-.1.217-.13.456-.08.687.05.231.17.444.35.611.17.166.4.279.64.324.24.045.5.02.73-.071.23-.092.42-.247.56-.444.13-.197.2-.429.2-.664 0-.309-.13-.606-.36-.824a1.26 1.26 0 00-.87-.341zM1152.73 121.583c.68 0 1.23-.522 1.23-1.165 0-.644-.55-1.165-1.23-1.165-.68 0-1.23.521-1.23 1.165 0 .643.55 1.165 1.23 1.165zM1160.19 119.253a1.29 1.29 0 00-.7.192 1.21 1.21 0 00-.47.53c-.09.217-.12.456-.07.687.04.231.16.444.34.611a1.305 1.305 0 001.37.253c.23-.092.43-.247.56-.444.14-.197.21-.429.21-.664a1.178 1.178 0 00-.37-.819 1.288 1.288 0 00-.87-.346zM1167.62 119.253c-.25 0-.49.07-.7.201-.2.13-.36.316-.46.534a1.15 1.15 0 00-.06.686c.05.23.17.44.34.605a1.307 1.307 0 001.37.245c.23-.092.43-.247.56-.444.14-.197.21-.427.2-.662 0-.155-.03-.308-.09-.45a1.4 1.4 0 00-.27-.381 1.276 1.276 0 00-.89-.334zM1175.07 121.583c.68 0 1.23-.522 1.23-1.165 0-.644-.55-1.165-1.23-1.165-.68 0-1.23.521-1.23 1.165 0 .643.55 1.165 1.23 1.165zM1182.52 119.253c-.25 0-.49.07-.7.201-.21.13-.37.316-.46.534-.1.217-.12.456-.07.686.05.23.17.44.35.605.18.165.4.276.64.32.25.043.5.017.73-.075.23-.092.42-.247.56-.444.13-.197.2-.427.2-.662 0-.155-.04-.308-.1-.45a1.072 1.072 0 00-.27-.381 1.224 1.224 0 00-.41-.251 1.26 1.26 0 00-.47-.083zM1189.96 121.583c.68 0 1.24-.522 1.24-1.165 0-.644-.56-1.165-1.24-1.165-.68 0-1.23.521-1.23 1.165 0 .643.55 1.165 1.23 1.165zM1197.41 119.253a1.29 1.29 0 00-.7.192 1.16 1.16 0 00-.55 1.217c.05.231.17.444.35.611.17.166.4.279.64.324.25.045.5.02.73-.071.23-.092.42-.247.56-.444.14-.197.21-.429.2-.664 0-.308-.13-.601-.36-.819a1.288 1.288 0 00-.87-.346zM1204.84 121.583c.68 0 1.23-.522 1.23-1.165 0-.644-.55-1.165-1.23-1.165-.68 0-1.23.521-1.23 1.165 0 .643.55 1.165 1.23 1.165zM1212.29 119.253c-.25 0-.49.07-.7.201-.21.13-.37.316-.46.534-.09.217-.12.456-.07.686.05.23.17.44.35.605.18.165.4.276.64.32.25.043.5.017.73-.075.23-.092.42-.247.56-.444.13-.197.2-.427.2-.662 0-.155-.03-.308-.1-.45a1.072 1.072 0 00-.27-.381 1.224 1.224 0 00-.41-.251 1.26 1.26 0 00-.47-.083zM1115.53 126.753a1.29 1.29 0 00-.7.192c-.21.128-.38.313-.47.53-.1.217-.13.456-.08.687.05.231.17.444.34.61a1.32 1.32 0 001.38.253c.23-.091.42-.246.56-.443.13-.197.2-.429.2-.664 0-.308-.14-.601-.37-.819a1.282 1.282 0 00-.86-.346zM1122.96 129.083c.68 0 1.23-.522 1.23-1.165 0-.644-.55-1.165-1.23-1.165-.68 0-1.23.521-1.23 1.165 0 .643.55 1.165 1.23 1.165zM1130.4 126.753c-.24 0-.49.07-.69.2-.21.131-.37.317-.46.534-.1.218-.12.457-.07.687.05.23.17.44.35.605.17.165.4.276.64.32.25.043.5.017.73-.075.22-.093.42-.247.55-.444.14-.197.21-.427.21-.662a1.165 1.165 0 00-.37-.831 1.276 1.276 0 00-.89-.334zM1137.85 129.083c.68 0 1.23-.522 1.23-1.165 0-.644-.55-1.165-1.23-1.165-.68 0-1.23.521-1.23 1.165 0 .643.55 1.165 1.23 1.165zM1145.3 126.753a1.29 1.29 0 00-.7.192c-.21.128-.38.313-.47.53-.1.217-.13.456-.08.687.05.231.17.444.35.61.17.167.4.28.64.325.24.045.5.02.73-.072.23-.091.42-.246.56-.443.13-.197.2-.429.2-.664 0-.153-.03-.305-.09-.446a1.4 1.4 0 00-.27-.378 1.2 1.2 0 00-.4-.253 1.306 1.306 0 00-.47-.088zM1152.73 129.083c.68 0 1.23-.522 1.23-1.165 0-.644-.55-1.165-1.23-1.165-.68 0-1.23.521-1.23 1.165 0 .643.55 1.165 1.23 1.165zM1160.19 126.753a1.29 1.29 0 00-.7.192 1.21 1.21 0 00-.47.53c-.09.217-.12.456-.07.687.04.231.16.444.34.61a1.297 1.297 0 001.37.253c.23-.091.43-.246.56-.443.14-.197.21-.429.21-.664a1.178 1.178 0 00-.37-.819 1.288 1.288 0 00-.87-.346zM1167.62 126.753c-.25 0-.49.07-.7.2-.2.131-.36.317-.46.534-.09.218-.11.457-.06.687.05.23.17.44.34.605a1.307 1.307 0 001.37.245c.23-.093.43-.247.56-.444.14-.197.21-.427.2-.662 0-.155-.03-.308-.09-.45a1.4 1.4 0 00-.27-.381 1.276 1.276 0 00-.89-.334zM1175.07 129.083c.68 0 1.23-.522 1.23-1.165 0-.644-.55-1.165-1.23-1.165-.68 0-1.23.521-1.23 1.165 0 .643.55 1.165 1.23 1.165zM1182.52 126.753c-.25 0-.49.07-.7.2-.21.131-.37.317-.46.534-.1.218-.12.457-.07.687.05.23.17.44.35.605.18.165.4.276.64.32.25.043.5.017.73-.075.23-.093.42-.247.56-.444.13-.197.2-.427.2-.662 0-.155-.04-.308-.1-.45a1.072 1.072 0 00-.27-.381 1.224 1.224 0 00-.41-.251 1.26 1.26 0 00-.47-.083zM1189.96 129.083c.68 0 1.24-.522 1.24-1.165 0-.644-.56-1.165-1.24-1.165-.68 0-1.23.521-1.23 1.165 0 .643.55 1.165 1.23 1.165zM1197.41 126.753a1.29 1.29 0 00-.7.192 1.16 1.16 0 00-.55 1.217c.05.231.17.444.35.61.17.167.4.28.64.325.25.045.5.02.73-.072.23-.091.42-.246.56-.443.14-.197.21-.429.2-.664 0-.308-.13-.601-.36-.819a1.288 1.288 0 00-.87-.346zM1204.84 129.083c.68 0 1.23-.522 1.23-1.165 0-.644-.55-1.165-1.23-1.165-.68 0-1.23.521-1.23 1.165 0 .643.55 1.165 1.23 1.165zM1122.98 134.253c-.25-.004-.5.063-.71.191-.2.129-.37.314-.47.531-.09.217-.12.456-.07.687.05.231.17.444.34.61.18.167.4.28.65.325.24.045.5.02.72-.072.23-.091.43-.246.56-.443.14-.198.21-.429.21-.664a1.178 1.178 0 00-.37-.819 1.282 1.282 0 00-.86-.346zM1130.4 134.253c-.24 0-.49.07-.69.2-.21.131-.37.317-.46.534-.1.218-.12.456-.07.687.05.23.17.44.35.605.17.165.4.276.64.32.25.043.5.017.73-.075.22-.093.42-.247.55-.444.14-.197.21-.428.21-.662a1.165 1.165 0 00-.37-.831 1.276 1.276 0 00-.89-.334zM1137.87 134.253c-.25 0-.49.07-.7.2-.2.131-.36.317-.46.534-.09.218-.11.456-.06.687.05.23.17.44.34.605.18.165.4.276.65.32.24.043.49.017.72-.075.23-.093.43-.247.56-.444.14-.197.21-.428.2-.662 0-.155-.03-.308-.09-.45a1.245 1.245 0 00-.28-.381 1.18 1.18 0 00-.4-.251 1.312 1.312 0 00-.48-.083zM1145.3 134.253c-.25-.004-.49.063-.7.191-.21.129-.38.314-.47.531-.1.217-.13.456-.08.687.05.231.17.444.35.61.17.167.4.28.64.325.24.045.5.02.73-.072.23-.091.42-.246.56-.443.13-.198.2-.429.2-.664 0-.309-.13-.606-.36-.824a1.256 1.256 0 00-.87-.341zM1152.75 134.253c-.25-.004-.5.063-.71.191-.2.129-.37.314-.46.531-.1.217-.13.456-.08.687.05.231.17.444.34.61.18.167.4.28.65.325.24.045.5.02.72-.072.23-.091.43-.246.57-.443.13-.198.2-.429.2-.664a1.178 1.178 0 00-.37-.819 1.282 1.282 0 00-.86-.346zM1160.19 134.253c-.25-.004-.49.063-.7.191-.21.129-.37.314-.47.531-.09.217-.12.456-.07.687.04.231.16.444.34.61a1.297 1.297 0 001.37.253c.23-.091.43-.246.56-.443.14-.198.21-.429.21-.664a1.178 1.178 0 00-.37-.819 1.288 1.288 0 00-.87-.346zM1167.62 134.253c-.25 0-.49.07-.7.2-.2.131-.36.317-.46.534-.09.218-.11.456-.06.687.05.23.17.44.34.605a1.307 1.307 0 001.37.245c.23-.093.43-.247.56-.444.14-.197.21-.428.2-.662 0-.155-.03-.308-.09-.45a1.4 1.4 0 00-.27-.381 1.276 1.276 0 00-.89-.334zM1175.07 134.253c-.25 0-.49.07-.7.2-.2.131-.36.317-.46.534-.09.218-.12.456-.07.687.05.23.17.44.35.605.18.165.4.276.65.32.24.043.49.017.72-.075.23-.093.42-.247.56-.444.13-.197.2-.428.2-.662 0-.155-.03-.308-.1-.45a1.072 1.072 0 00-.27-.381 1.18 1.18 0 00-.4-.251 1.349 1.349 0 00-.48-.083zM1182.52 134.253c-.25 0-.49.07-.7.2-.21.131-.37.317-.46.534-.1.218-.12.456-.07.687.05.23.17.44.35.605.18.165.4.276.64.32.25.043.5.017.73-.075.23-.093.42-.247.56-.444.13-.197.2-.428.2-.662 0-.155-.04-.308-.1-.45a1.072 1.072 0 00-.27-.381 1.224 1.224 0 00-.41-.251 1.26 1.26 0 00-.47-.083zM1189.96 134.253c-.25-.004-.49.063-.7.191-.21.129-.37.314-.47.531-.09.217-.12.456-.07.687.04.231.16.444.34.61a1.297 1.297 0 001.37.253c.23-.091.43-.246.56-.443.14-.198.21-.429.21-.664 0-.309-.13-.606-.37-.824a1.256 1.256 0 00-.87-.341zM1197.41 134.253c-.25-.004-.49.063-.7.191-.21.129-.37.314-.47.531-.1.217-.12.456-.08.687.05.231.17.444.35.61.17.167.4.28.64.325.25.045.5.02.73-.072.23-.091.42-.246.56-.443.14-.198.21-.429.2-.664 0-.308-.13-.601-.36-.819a1.288 1.288 0 00-.87-.346zM1131.66 142.918c-.04-.287-.19-.55-.42-.741a1.29 1.29 0 00-.83-.296c-.3 0-.6.105-.82.296-.23.191-.38.454-.42.741l1.93.964c.17-.103.31-.246.41-.415.09-.168.14-.357.15-.549zM1137.87 141.753c-.25 0-.49.069-.7.2-.2.131-.36.317-.46.534-.09.218-.11.456-.06.686.05.23.17.441.34.606a1.307 1.307 0 001.37.245c.23-.093.43-.247.56-.444.14-.197.21-.428.2-.662 0-.155-.03-.308-.09-.45a1.245 1.245 0 00-.28-.381 1.165 1.165 0 00-.4-.251 1.312 1.312 0 00-.48-.083zM1145.3 141.753c-.25-.004-.49.063-.7.191-.21.129-.38.314-.47.531-.1.216-.13.456-.08.687.05.231.17.444.35.61.17.167.4.28.64.325.24.045.5.02.73-.072.23-.091.42-.246.56-.443.13-.198.2-.429.2-.664 0-.309-.13-.606-.36-.824a1.256 1.256 0 00-.87-.341zM1152.75 141.753c-.25-.004-.5.063-.71.191-.2.129-.37.314-.46.531-.1.216-.13.456-.08.687.05.231.17.444.34.61.18.167.4.28.65.325.24.045.5.02.72-.072.23-.091.43-.246.57-.443.13-.198.2-.429.2-.664a1.176 1.176 0 00-.37-.819 1.282 1.282 0 00-.86-.346zM1160.19 141.753c-.25-.004-.49.063-.7.191-.21.129-.37.314-.47.531-.09.216-.12.456-.07.687.04.231.16.444.34.61a1.297 1.297 0 001.37.253c.23-.091.43-.246.56-.443.14-.198.21-.429.21-.664a1.176 1.176 0 00-.37-.819 1.288 1.288 0 00-.87-.346zM1167.62 141.753c-.25 0-.49.069-.7.2-.2.131-.36.317-.46.534-.09.218-.11.456-.06.686.05.23.17.441.34.606a1.31 1.31 0 001.37.245c.23-.093.43-.247.56-.444.14-.197.21-.428.2-.662 0-.155-.03-.308-.09-.45a1.4 1.4 0 00-.27-.381 1.276 1.276 0 00-.89-.334zM1175.07 141.753c-.25 0-.49.069-.7.2-.2.131-.36.317-.46.534-.09.218-.12.456-.07.686.05.23.17.441.35.606a1.307 1.307 0 001.37.245c.23-.093.42-.247.56-.444.13-.197.2-.428.2-.662 0-.155-.03-.308-.1-.45a1.072 1.072 0 00-.27-.381 1.165 1.165 0 00-.4-.251 1.349 1.349 0 00-.48-.083zM1182.52 141.753c-.25 0-.49.069-.7.2-.21.131-.37.317-.46.534-.1.218-.12.456-.07.686.05.23.17.441.35.606.18.165.4.276.64.319.25.044.5.018.73-.074.23-.093.42-.247.56-.444.13-.197.2-.428.2-.662 0-.155-.04-.308-.1-.45a1.072 1.072 0 00-.27-.381 1.208 1.208 0 00-.41-.251 1.26 1.26 0 00-.47-.083zM1189.96 141.753c-.32 0-.64.122-.87.34-.24.218-.37.514-.38.825 0 .197.05.39.16.563.1.172.24.316.42.42.65-.31 1.29-.638 1.92-.965a.908.908 0 00-.09-.456 1.081 1.081 0 00-.27-.386 1.148 1.148 0 00-.4-.256 1.325 1.325 0 00-.49-.085zM1152.75 149.289c-.26-.002-.5.07-.71.207-.21.137-.36.332-.45.557.79.109 1.58.182 2.39.273a1.162 1.162 0 00-.41-.738 1.298 1.298 0 00-.82-.299zM1160.19 149.289c-.32 0-.64.122-.87.34-.24.218-.37.514-.38.825v.127h2.45a.273.273 0 000-.127c0-.303-.13-.594-.35-.811a1.265 1.265 0 00-.85-.354zM1167.62 149.289c-.3.006-.59.115-.81.305-.22.19-.36.45-.4.732.79 0 1.6-.164 2.39-.273a1.194 1.194 0 00-.46-.559 1.28 1.28 0 00-.72-.205z" fill="#000"/>
  <path d="M218.128 315.798c0-3.869-.806-7.701-2.372-11.275a29.405 29.405 0 00-6.755-9.558 31.31 31.31 0 00-10.108-6.383 32.658 32.658 0 00-11.921-2.237H98.7a32.736 32.736 0 00-12.159 2.029 31.398 31.398 0 00-10.37 6.336 29.471 29.471 0 00-6.955 9.65 28.103 28.103 0 00-2.446 11.447c0 3.932.832 7.825 2.446 11.448a29.471 29.471 0 006.955 9.65 31.398 31.398 0 0010.37 6.336A32.736 32.736 0 0098.7 345.27h88.272c8.263 0 16.187-3.105 22.03-8.632 5.843-5.527 9.126-13.023 9.126-20.84z" fill="#EF8E8E"/>
  <path d="M208.506 325.865c-6.354.004-12.567-1.776-17.851-5.113-5.285-3.337-9.405-8.082-11.838-13.634a28.86 28.86 0 01-1.832-17.558c1.238-5.895 4.298-11.31 8.791-15.56 4.492-4.25 10.217-7.144 16.449-8.316a33.82 33.82 0 0118.561 1.733c5.87 2.302 10.886 6.199 14.414 11.198 3.527 4.999 5.408 10.876 5.405 16.886-.011 8.05-3.396 15.768-9.413 21.46-6.018 5.692-14.176 8.894-22.686 8.904zm0-58.925c-5.973-.004-11.812 1.668-16.78 4.804-4.968 3.136-8.841 7.596-11.129 12.815a27.122 27.122 0 00-1.726 16.503c1.162 5.542 4.037 10.633 8.258 14.629 4.222 3.996 9.602 6.718 15.46 7.822a31.8 31.8 0 0017.448-1.623c5.518-2.161 10.235-5.822 13.553-10.519 3.319-4.697 5.09-10.22 5.09-15.87.005-7.578-3.17-14.849-8.827-20.214-5.658-5.366-13.336-8.388-21.347-8.402v.055z" fill="#000"/>
  <path d="M208.506 325.865h-88.272c-8.38-.194-16.347-3.479-22.201-9.154-5.854-5.675-9.131-13.29-9.131-21.219 0-7.929 3.277-15.544 9.13-21.219 5.855-5.675 13.822-8.96 22.202-9.154h88.272v1.82h-88.272c-7.873.189-15.358 3.279-20.856 8.613-5.498 5.335-8.576 12.49-8.576 19.94 0 7.45 3.078 14.605 8.576 19.94 5.498 5.334 12.983 8.425 20.856 8.613h88.272v1.82z" fill="#000"/>
  <path d="M1258.32 541.798c4.09.002 8.14-.758 11.92-2.237a31.38 31.38 0 0010.11-6.384c2.89-2.735 5.19-5.983 6.75-9.557a28.009 28.009 0 002.37-11.276v-34.496c0-7.816-3.28-15.313-9.12-20.84-5.84-5.527-13.77-8.632-22.03-8.632-8.26 0-16.19 3.105-22.03 8.632-5.84 5.527-9.13 13.024-9.13 20.84v34.496c0 3.87.81 7.701 2.37 11.276a29.532 29.532 0 006.76 9.557c2.89 2.736 6.33 4.905 10.11 6.384a32.694 32.694 0 0011.92 2.237z" fill="#FFFBF5"/>
  <path d="M1279.83 563.078c-6.35 0-12.56-1.782-17.84-5.12-5.28-3.339-9.4-8.084-11.83-13.635-2.43-5.552-3.07-11.661-1.83-17.554 1.24-5.894 4.3-11.307 8.79-15.556 4.49-4.249 10.22-7.143 16.45-8.315a33.783 33.783 0 0118.55 1.729c5.87 2.299 10.89 6.193 14.42 11.19 3.53 4.996 5.41 10.87 5.41 16.879 0 8.056-3.39 15.781-9.41 21.478-6.02 5.697-14.19 8.899-22.71 8.904zm0-58.926c-5.97 0-11.81 1.676-16.77 4.815-4.97 3.139-8.84 7.601-11.12 12.821-2.29 5.22-2.89 10.964-1.72 16.505 1.17 5.541 4.05 10.63 8.27 14.624 4.22 3.993 9.61 6.712 15.46 7.812 5.86 1.1 11.93.532 17.45-1.633 5.52-2.164 10.23-5.828 13.55-10.527 3.31-4.699 5.08-10.223 5.08-15.873-.01-7.572-3.19-14.832-8.85-20.184-5.67-5.353-13.34-8.36-21.35-8.36z" fill="#000"/>
  <path d="M1311.95 532.696h-1.92V498.2c-.2-7.448-3.47-14.527-9.11-19.729-5.64-5.201-13.2-8.112-21.08-8.112-7.87 0-15.44 2.911-21.08 8.112-5.64 5.202-8.9 12.281-9.1 19.729v34.496h-1.93V498.2c.21-7.927 3.68-15.464 9.68-21.001 6-5.538 14.05-8.638 22.43-8.638 8.38 0 16.43 3.1 22.43 8.638 6 5.537 9.48 13.074 9.68 21.001v34.496z" fill="#000"/>
  <path d="M124.448 710.437c32.788 0 59.368-25.143 59.368-56.158 0-31.016-26.58-56.159-59.368-56.159-32.787 0-59.367 25.143-59.367 56.159 0 31.015 26.58 56.158 59.367 56.158z" fill="#EF8E8E"/>
  <path d="M175.772.018c-.058 19.55-3.691 38.945-10.739 57.324-.192.528-.404 1.037-.596 1.529-12.786 32.348-35.686 60.244-65.65 79.975-29.964 19.73-65.571 30.357-102.08 30.467V.018h179.065z" fill="#EF8E8E"/>
  <path d="M109.342.018a101.417 101.417 0 01-6.793 36.044c-.116.327-.251.655-.366.964-8.046 20.336-22.45 37.87-41.292 50.27-18.842 12.4-41.23 19.076-64.184 19.141V.018h112.635z" fill="#60CBE8"/>
  <path d="M998.564.018c-22.034 39.193-67.142 43.507-118.562 48.44-59.156 5.68-125.836 12.106-182.547 68.81a234.277 234.277 0 00-9.18 9.739c-52.247 58.635-109.344 87.542-173.484 87.542a234.647 234.647 0 01-45.55-4.605 328.96 328.96 0 01-63.505-19.842c-47.571-19.861-92.486-48.859-133.572-75.4-16.126-10.413-31.367-20.243-45.8-28.89-15.342-9.24-31.772-16.754-48.957-22.39-22.551-7.342-46.277-10.933-70.125-10.613-33.195.437-67.353 8.283-101.588 23.374a401.235 401.235 0 00-8.987 4.114v-2.003c2.675-1.256 5.37-2.494 8.121-3.64 43.664-19.242 105.841-34.46 173.195-12.743 17.334 5.642 33.897 13.213 49.341 22.554 14.472 8.647 29.732 18.477 45.878 28.926 41.817 26.96 87.617 56.541 136.112 76.456a323.814 323.814 0 0060.291 18.549c82.326 16.238 153.374-10.704 217.168-82.299 2.444-2.767 4.907-5.461 7.428-7.955 57.558-58.943 125.431-65.533 185.588-71.231 52.459-5.043 95.142-9.102 116.599-46.656l2.136-.237z" fill="#000"/>
  <g class="moving-cross">
  <path d="M502.572 49.878l-7.005 6.627-7.005-6.627-14.009-13.27-14.029 13.27 14.029 13.253 7.004 6.644-7.004 6.626-14.029 13.252 14.029 13.253 14.009-13.253 7.005-6.626 7.005 6.626 14.028 13.253 14.01-13.253-14.01-13.252-7.004-6.626 7.004-6.644 14.01-13.253-14.01-13.27-14.028 13.27z" fill="#FFFBF5"/>
  <path d="M465.123 104.216l-15.395-14.563 21.014-19.896-20.995-19.879 15.395-14.563 21.015 19.897 21.014-19.879 15.395 14.564-21.053 19.878 21.034 19.897-15.395 14.563-21.015-19.915-21.014 19.896zm21.014-22.463l21.034 19.879 12.643-11.96L498.8 69.775l21.014-19.897-12.643-11.96-21.034 19.879-21.014-19.879-12.662 11.96 21.033 19.897-21.033 19.897 12.662 11.96 21.014-19.879zM99.7 421.799c-3.044 0-6.02-.854-8.553-2.455-2.531-1.6-4.505-3.874-5.67-6.535a13.833 13.833 0 01-.876-8.414c.594-2.825 2.06-5.42 4.214-7.457 2.153-2.036 4.896-3.423 7.882-3.985a16.215 16.215 0 018.895.828c2.813 1.103 5.218 2.969 6.909 5.364 1.692 2.395 2.595 5.21 2.595 8.091 0 3.862-1.622 7.566-4.509 10.297-2.888 2.731-6.803 4.266-10.886 4.266zm0-27.306c-2.664 0-5.268.747-7.483 2.148-2.216 1.4-3.942 3.39-4.962 5.718a12.107 12.107 0 00-.766 7.363c.52 2.472 1.802 4.742 3.686 6.524s4.285 2.996 6.898 3.488a14.19 14.19 0 007.783-.726c2.461-.964 4.565-2.597 6.045-4.693a12.258 12.258 0 002.27-7.079c-.01-3.373-1.434-6.605-3.959-8.987-2.525-2.382-5.945-3.719-9.511-3.719v-.037z" fill="#000"/>
  </g>
  <path d="M1376.94 412.296c11.91 0 21.57-9.136 21.57-20.406s-9.66-20.406-21.57-20.406c-11.92 0-21.57 9.136-21.57 20.406s9.65 20.406 21.57 20.406z" fill="#60CBE8"/>
  <path d="M1325.23 115.885c-3.1.004-6.13-.863-8.71-2.49-2.58-1.626-4.59-3.941-5.78-6.649a14.012 14.012 0 01-.89-8.565c.6-2.876 2.09-5.518 4.28-7.592 2.2-2.073 4.99-3.485 8.03-4.056 3.04-.571 6.19-.276 9.05.848 2.87 1.123 5.31 3.026 7.03 5.465 1.72 2.44 2.64 5.307 2.63 8.239-.01 3.923-1.66 7.681-4.59 10.455-2.93 2.773-6.9 4.335-11.05 4.345zm0-27.797a14.3 14.3 0 00-7.64 2.181c-2.26 1.426-4.03 3.455-5.07 5.83a12.354 12.354 0 00-.79 7.511c.53 2.522 1.84 4.84 3.76 6.66 1.92 1.819 4.37 3.059 7.03 3.562 2.67.503 5.43.246 7.94-.737 2.52-.983 4.66-2.649 6.17-4.787 1.51-2.138 2.32-4.651 2.32-7.223 0-3.444-1.44-6.747-4.02-9.184-2.57-2.437-6.06-3.808-9.7-3.813z" fill="#000"/>
  <path d="M1378.8 325.246h-44.89v1.82h44.89v-1.82zM1367.89 318.911h-23.09v1.821h23.09v-1.821zM1367.89 398.826h-23.09v1.82h23.09v-1.82zM1386.75 331.363h-60.77v1.82h60.77v-1.82zM1391.85 337.497h-70.99v1.821h70.99v-1.821zM1395.26 343.632h-77.79v1.82h77.79v-1.82zM1397.34 349.748h-81.96v1.821h81.96v-1.821zM1398.36 355.883h-83.98v1.82h83.98v-1.82zM1398.36 362.018h-83.98v1.82h83.98v-1.82zM1397.34 368.152h-81.96v1.821h81.96v-1.821zM1395.24 374.269h-77.77v1.82h77.77v-1.82zM1391.85 380.403h-70.99v1.821h70.99v-1.821zM1386.75 386.538h-60.77v1.82h60.77v-1.82zM1378.8 392.655h-44.89v1.82h44.89v-1.82z" fill="#252828"/>
  <g class="scaling-circles">
  <path d="M1143.95 910.205c-.01-36.782 7.64-73.206 22.52-107.191 14.87-33.986 36.67-64.866 64.17-90.879 27.49-26.012 60.13-46.647 96.05-60.725 35.92-14.078 74.43-21.324 113.31-21.324v-47.33c-45.45 0-90.46 8.471-132.45 24.928-42 16.457-80.15 40.578-112.29 70.985-32.13 30.408-57.62 66.506-75.01 106.234-17.38 39.727-26.33 82.305-26.31 125.302h50.01z" fill="#60CBE8"/>
  <path d="M1244.48 910.205c-.01-24.294 5.04-48.352 14.86-70.8 9.82-22.447 24.22-42.845 42.38-60.027 18.16-17.181 39.71-30.811 63.44-40.11 23.73-9.3 49.16-14.086 74.84-14.086v-31.237c-30.02 0-59.74 5.594-87.48 16.463-27.73 10.869-52.93 26.8-74.15 46.882-21.22 20.083-38.06 43.924-49.54 70.161-11.48 26.238-17.38 54.358-17.37 82.754h33.02z" fill="#EF8E8E"/>
  </g>
  <path d="M297.104 75.71h-85.616v1.82h85.616v-1.82zM276.321 63.622h-44.049v1.82h44.049v-1.82zM276.321 216.024h-44.049v1.82h44.049v-1.82zM312.23 87.378H196.344v1.82H312.23v-1.82zM321.968 99.065H186.606v1.82h135.362v-1.82zM328.453 110.77H180.14v1.82h148.313v-1.82zM332.436 122.438H176.157v1.821h156.279v-1.821zM334.361 134.143H174.232v1.821h160.129v-1.821zM334.361 145.812H174.232v1.82h160.129v-1.82zM332.436 157.517H176.157v1.82h156.279v-1.82zM328.453 169.204H180.159v1.82h148.294v-1.82zM321.968 180.872H186.606v1.821h135.362v-1.821zM312.23 192.577H196.344v1.821H312.23v-1.821zM297.104 204.246h-85.616v1.82h85.616v-1.82z" fill="#252828"/>
  <path d="M974.932 832.457c13.753 0 24.902-10.547 24.902-23.556s-11.149-23.555-24.902-23.555c-13.752 0-24.901 10.546-24.901 23.555s11.149 23.556 24.901 23.556z" fill="#EF8E8E"/>
  <path d="M945.951 819.514c-10.413 0-20.593-2.921-29.251-8.394-8.659-5.473-15.407-13.251-19.392-22.352-3.985-9.101-5.028-19.115-2.996-28.776 2.031-9.661 7.046-18.536 14.409-25.501 7.364-6.966 16.745-11.709 26.959-13.631 10.213-1.922 20.799-.935 30.42 2.834 9.621 3.77 17.844 10.154 23.629 18.344 5.786 8.191 8.874 17.82 8.874 27.67-.016 13.205-5.568 25.865-15.438 35.202-9.871 9.337-23.254 14.589-37.214 14.604zm0-97.791c-10.033 0-19.84 2.815-28.182 8.087-8.342 5.273-14.844 12.767-18.683 21.535-3.84 8.769-4.844 18.417-2.887 27.725 1.957 9.308 6.789 17.858 13.883 24.569 7.094 6.711 16.133 11.281 25.973 13.132 9.84 1.852 20.04.902 29.309-2.73 9.269-3.632 17.191-9.782 22.765-17.673 5.574-7.892 8.549-17.169 8.549-26.66-.015-12.721-5.364-24.918-14.874-33.914-9.51-8.996-22.404-14.056-35.853-14.071z" fill="#000"/>
</svg>
