<svg width="105" height="113" viewBox="0 0 105 113">
    <g>
        <path d="M104.186 45.163V44.708L58.694 20.024L13.22 44.708V88.179L58.694 112.881L104.186 88.179V45.145V45.163Z" fill="#60CBE8"/>
        <path d="M47.417 95.442L0 69.702V24.629L47.417 50.369V95.442ZM1.92395 68.664L45.492 92.329V51.371L1.92395 27.706V68.664Z" fill="black"/>
        <path d="M45.4929 95.442V50.315L92.9099 24.629V69.756L45.4929 95.442ZM47.4169 51.371V92.311L90.9849 68.646V27.724L47.4169 51.371Z" fill="black"/>
        <path d="M46.455 51.935L0 26.723V25.23L46.455 0L92.91 25.23V26.723L46.455 51.935ZM2.50195 25.958L46.455 49.823L90.427 25.958L46.455 2.05701L2.50195 25.958Z" fill="black"/>
    </g>
</svg>