<svg version="1.1" id="svg-animation-example" class="under-construction" xmlns="http://www.w3.org/2000/svg"
    xmlns:xlink="http://www.w3.org/1999/xlink" x="0" y="0" width="700" height="280" viewBox="0 0 720 310"
    xml:space="preserve" aria-hidden="true">
    <defs>
        <clipPath id="mask-page">
            <path class="stroke-alt stroke-width linecap" d="m240,275 l240,0 0,-217 -240,0z" />
        </clipPath>
    </defs>
    <!-- content page -->
    <g clip-path="url(#mask-page)">
        <g class="move-page">
            <!-- section one -->
            <path class="stroke stroke-width linecap" d="m0,275 m254,-203 l212,0 0,112 -212,0z" fill="none" />
            <path class="stroke-alt stroke-width linecap" d="m0,275 m272,-172 a13 13 180 0 1 26,0 a13 13 180 0 1 -26,0"
                fill="none" />
            <path class="stroke stroke-width linecap"
                d="m0,275 m254,-203 m22,112 l34,-44 a9 9 180 0 1 13,-1 l15,16 38,-48 a5 5 180 0 1 8.4,0 l60,77"
                fill="none" />
            <path class="stroke stroke-width linecap"
                d="m0,275 m254,-67 l212,0 m-212,10 l54,0 m25,0 l54,0 m25,0 l54,0 m-212,10 l54,0 m25,0 l54,0 m25,0 l54,0"
                fill="none" />
            <!-- button section one -->
            <path class="stroke stroke-width linecap"
                d="m350,250 a10 10 180 0 1 20,0 a10 10 180 0 1 -20,0 m6.8,-1.7 l3.2,3.2 3.2,-3.2" fill="none" />
            <path class="stroke stroke-width linecap" d="m318,290 l0,430" fill="none" />
            <path class="stroke stroke-width linecap" d="m333,306 l54,0 m-54,10 l54,0 m-54,10 l133,0 m-133,10 l133,0"
                fill="none" />
            <path class="stroke stroke-width linecap"
                d="m333,356 l133,0 0,78 -133,0 0,-78 m0,90 l54,0 m-54,10 l54,0 m-54,20 133,0 0,78 -133,0 0,-78 m0,90 l54,0 m-54,10 l54,0 m-54,20 133,0 0,78 -133,0 0,-78 m0,90 l54,0 m-54,10 l54,0 m-54,20"
                fill="none" />
            <!-- section two -->
            <path class="stroke stroke-width linecap" d="m0,680 m0,275 m254,-203 l212,0 0,112 -212,0z" fill="none" />
            <path class="stroke-alt stroke-width linecap"
                d="m0,680 m0,275 m272,-172 a13 13 180 0 1 26,0 a13 13 180 0 1 -26,0" fill="none" />
            <path class="stroke stroke-width linecap"
                d="m0,680 m0,275 m254,-203 m22,112 l34,-44 a9 9 180 0 1 13,-1 l15,16 38,-48 a5 5 180 0 1 8.4,0 l60,77"
                fill="none" />
            <path class="stroke stroke-width linecap"
                d="m0,680 m0,275 m254,-67 l212,0 m-212,10 l54,0 m25,0 l54,0 m25,0 l54,0 m-212,10 l54,0 m25,0 l54,0 m25,0 l54,0"
                fill="none" />
            <!-- button section two -->
            <path class="stroke stroke-width linecap"
                d="m0,680 m350,250 a10 10 180 0 1 20,0 a10 10 180 0 1 -20,0 m6.8,-1.7 l3.2,3.2 3.2,-3.2" fill="none" />
        </g>
        <g class="move-menu">
            <g>
                <path class="stroke stroke-width linecap" d="m254,306 l54,0 m-54,10 l54,0 m-54,10 l54,0 m-54,10 l54,0"
                    fill="none" />
            </g>
        </g>
    </g>
    <!-- fade button -->
    <g class="fade-button" opacity="0">
        <path class="stroke-background stroke-overlay linecap"
            d="m350,250 a10 10 180 0 1 20,0 a10 10 180 0 1 -20,0 m6.8,-1.7 l3.2,3.2 3.2,-3.2" fill="none" />
        <path class="stroke-alt stroke-width linecap"
            d="m350,250 a10 10 180 0 1 20,0 a10 10 180 0 1 -20,0 m6.8,-1.7 l3.2,3.2 3.2,-3.2" fill="none" />
    </g>
    <!-- baseline -->
    <path class="stroke stroke-width linecap"
        d="m0,275 l240,0 0,-230 a5 5 90 0 1 5,-5 l230,0 a5 5 90 0 1 5,5 l0,230 240,0" fill="none" />
    <path class="stroke stroke-width linecap" d="m0,275 m240,-217 l240,0" fill="none" />
    <path class="stroke stroke-width linecap"
        d="m0,275 m240,-226 m10,0 a4 4 180 0 1 8,0 a4 4 180 0 1 -8,0 m14,0 a4 4 180 0 1 8,0 a4 4 180 0 1 -8,0 m14,0 a4 4 180 0 1 8,0 a4 4 180 0 1 -8,0"
        fill="none" />
    <defs>
        <style>
            .under-construction {
                width: 100%;
            }

            .under-construction .stroke-background {
                stroke: #8685ef;
            }

            .under-construction .stroke {
                stroke: #8685ef;
            }

            .under-construction .stroke-alt {
                stroke: #8685ef;
                fill: #8685ef;
            }

            .under-construction .stroke-width {
                stroke-width: 2;
            }

            .under-construction .stroke-overlay {
                stroke-width: 3;
            }

            .under-construction .linecap {
                stroke-linecap: round;
                stroke-linejoin: round;
            }

            .under-construction .fade-button,
            .under-construction .move-page,
            .under-construction .move-menu {
                animation-duration: 5500ms;
                animation-timing-function: ease;
                animation-delay: 100ms;
                animation-iteration-count: infinite;
            }

            .under-construction .fade-button {
                animation-name: fade-button;
            }

            .under-construction .move-page {
                animation-name: move-page;
            }

            .under-construction .move-menu {
                animation-name: move-menu;
            }

            @keyframes fade-button {

                0%,
                12%,
                100% {
                    opacity: 0;
                }

                9%,
                11% {
                    opacity: 1;
                }
            }

            @keyframes move-page {

                0%,
                14%,
                100% {
                    transform: translateY(0px);
                    animation-timing-function: ease-in;
                }

                28% {
                    transform: translateY(-220px);
                    animation-timing-function: linear;
                }

                80%,
                99.9999% {
                    transform: translateY(-680px);
                    animation-timing-function: linear;
                }
            }

            @keyframes move-menu {

                0%,
                14%,
                100% {
                    transform: translateY(0px);
                    animation-timing-function: ease-in;
                }

                28%,
                68.6957% {
                    transform: translateY(-220px);
                    animation-timing-function: linear;
                }

                80% {
                    transform: translateY(-320px);
                    animation-timing-function: linear;
                }

                99.9999% {
                    transform: translateY(-680px);
                    animation-timing-function: linear;
                }
            }
        </style>
    </defs>
</svg>