<svg width="84" height="82" viewBox="0 0 84 82">
    <path d="M64.42 6.33499H19.53V8.155H64.42V6.33499ZM53.51 0H30.42V1.82098H53.51V0ZM53.51 79.915H30.42V81.735H53.51V79.915ZM72.37 12.452H11.6V14.272H72.37V12.452ZM77.47 18.586H6.47998V20.407H77.47V18.586ZM80.88 24.721H3.08997V26.541H80.88V24.721ZM82.96 30.837H1V32.658H82.96V30.837ZM83.98 36.972H0V38.792H83.98V36.972ZM83.98 43.107H0V44.927H83.98V43.107ZM82.96 49.241H1V51.062H82.96V49.241ZM80.86 55.358H3.08997V57.178H80.86V55.358ZM77.47 61.492H6.47998V63.313H77.47V61.492ZM72.37 67.627H11.6V69.447H72.37V67.627ZM64.42 73.744H19.53V75.564H64.42V73.744Z" fill="#252828"/>
</svg>