<svg viewBox="0 0 82 69">
    <g>
        <path d="M53.2663 14.563L46.2613 21.19L39.2563 14.563L25.2473 1.29303L11.2183 14.563L25.2473 27.816L32.2513 34.46L25.2473 41.086L11.2183 54.338L25.2473 67.591L39.2563 54.338L46.2613 47.712L53.2663 54.338L67.2943 67.591L81.3043 54.338L67.2943 41.086L60.2903 34.46L67.2943 27.816L81.3043 14.563L67.2943 1.29303L53.2663 14.563Z" fill="#FFFBF5"/>
        <path d="M15.8173 68.901L0.422363 54.338L21.4363 34.442L0.441345 14.563L15.8364 0L36.8514 19.897L57.8654 0.0180016L73.2603 14.582L52.2073 34.46L73.2413 54.357L57.8464 68.92L36.8314 49.005L15.8173 68.901ZM36.8314 46.438L57.8654 66.317L70.5084 54.357L49.4943 34.46L70.5084 14.563L57.8654 2.603L36.8314 22.482L15.8173 2.603L3.15533 14.563L24.1884 34.46L3.15533 54.357L15.8173 66.317L36.8314 46.438Z" fill="black"/>
    </g>
</svg>